<svg width="126" height="194" viewBox="0 0 126 194" fill="none" xmlns="http://www.w3.org/2000/svg">
<g clip-path="url(#clip0_83_971)">
<path d="M20.7529 48.5732C21.3336 50.5912 22.9124 52.1729 24.9414 52.7523C22.9189 53.3316 21.3336 54.9069 20.7529 56.9313C20.1723 54.9134 18.5934 53.3316 16.5645 52.7523C18.5869 52.1729 20.1723 50.5977 20.7529 48.5732Z" fill="white"/>
<path d="M38.0803 34.7275C38.3543 35.6779 39.0981 36.4265 40.0571 36.6999C39.1046 36.9733 38.3543 37.7154 38.0803 38.6722C37.8063 37.7154 37.0626 36.9733 36.1035 36.6999C37.056 36.4265 37.8063 35.6844 38.0803 34.7275Z" fill="white"/>
<path d="M68.5444 82.894C101.868 69.183 125.495 49.8721 121.317 39.7619C117.138 29.6516 86.7362 32.5706 53.4123 46.2816C20.0885 59.9925 -3.53835 79.3034 0.640266 89.4136C4.81888 99.5239 35.2206 96.6049 68.5444 82.894Z" stroke="white" stroke-width="0.5" stroke-miterlimit="10"/>
<path d="M39.3592 75.8668C39.3592 75.8668 35.9144 68.088 38.9351 61.5526C41.1468 56.7681 50.0391 58.057 52.5052 71.4013C54.9713 84.7651 65.0119 97.7124 79.4106 100.908C79.4106 100.908 50.548 105.569 39.3592 75.8668Z" fill="url(#paint0_linear_83_971)"/>
<path d="M69.1682 98.9627C69.1682 98.9627 61.5546 98.0579 53.6996 91.7047C46.9145 86.2173 39.4248 77.6444 33.2139 66.1162C33.2139 66.1162 43.7894 98.5396 69.1682 98.9627Z" fill="#424ACB"/>
<path d="M27.094 80.873C27.094 80.873 22.4162 73.7647 24.3147 66.8191C25.7044 61.7353 34.6946 61.553 39.3267 74.305C43.9653 87.0829 56.0023 98.201 70.7337 98.9887C70.7337 98.9887 43.0324 108.323 27.094 80.873Z" fill="url(#paint1_linear_83_971)"/>
<path d="M68.3001 100.355C68.3001 100.355 61.1823 99.8082 51.9638 95.6552C44.0044 92.0685 34.5705 85.6763 25.626 76.1074C25.626 76.1074 43.6455 106.383 68.3001 100.355Z" fill="#424ACB"/>
<path d="M57.9275 99.4696C70.7082 102.334 83.3389 94.1254 86.3726 81.4125C87.8601 75.183 90.6655 67.0527 95.5716 63.772C104.001 58.1348 109.005 64.4164 105.671 71.2578C102.337 78.0992 104.014 90.5842 101.411 100.01C94.195 126.145 71.0932 129.087 48.3045 119.187C21.7383 107.645 11.5281 76.7517 16.4473 73.7574C22.1624 70.2749 29.6325 79.1472 35.7195 85.9626C39.0207 89.6599 47.639 97.1653 57.9275 99.4761V99.4696Z" fill="url(#paint2_linear_83_971)"/>
<path d="M43.046 183.839C43.3135 183.839 43.5288 183.76 43.6854 183.604C43.8419 183.448 43.9202 183.24 43.9202 182.986C43.9202 182.673 43.7832 182.387 43.5027 182.133C43.2221 181.879 42.922 181.749 42.5893 181.749C42.3479 181.749 42.1522 181.827 41.9956 181.983C41.839 182.14 41.7607 182.328 41.7607 182.556C41.7607 182.888 41.8977 183.181 42.1652 183.441C42.4327 183.702 42.7263 183.832 43.0395 183.832L43.046 183.839Z" fill="url(#paint3_linear_83_971)"/>
<path d="M39.9594 183.839C40.2138 183.839 40.4226 183.76 40.5922 183.604C40.7553 183.448 40.8401 183.24 40.8401 182.986C40.8401 182.673 40.7031 182.387 40.4226 182.133C40.1421 181.879 39.842 181.749 39.5092 181.749C39.2678 181.749 39.0721 181.827 38.9155 181.983C38.759 182.14 38.6807 182.328 38.6807 182.556C38.6807 182.888 38.8177 183.181 39.0852 183.441C39.3526 183.702 39.6462 183.832 39.9594 183.832V183.839Z" fill="url(#paint4_linear_83_971)"/>
<path d="M49.6091 183.767H48.0564L49.8309 192.021C49.844 192.158 49.8179 192.262 49.7396 192.347C49.6613 192.431 49.57 192.47 49.446 192.47H39.4837C38.7334 192.47 38.0484 192.216 37.4286 191.709C36.8088 191.201 36.4108 190.57 36.2477 189.821L35.4844 186.163H33.9121L34.7015 189.821C34.8646 190.57 35.2104 191.266 35.7258 191.911C36.2412 192.555 36.861 193.063 37.5787 193.434C38.2963 193.805 39.0401 193.994 39.8034 193.994H50.1441C50.516 193.994 50.8356 193.87 51.0901 193.623C51.3445 193.375 51.475 193.063 51.475 192.692C51.475 192.555 51.4685 192.451 51.4489 192.379L49.6026 183.761L49.6091 183.767Z" fill="url(#paint5_linear_83_971)"/>
<path d="M70.6561 188.479C70.4604 187.581 70.0755 186.761 69.4948 186.012C68.9207 185.264 68.2161 184.678 67.3941 184.248C66.572 183.818 65.7108 183.61 64.8105 183.61H59.9762L61.3919 190.276C61.4376 190.458 61.4571 190.627 61.4571 190.79C61.4571 191.285 61.294 191.688 60.9613 192.001C60.6286 192.313 60.198 192.469 59.6565 192.469H58.1755C57.758 192.469 57.36 192.32 56.9946 192.02C56.6293 191.721 56.4009 191.363 56.3096 190.946L53.6086 178.292H52.1016L54.7764 190.946C54.9591 191.786 55.4093 192.502 56.1269 193.101C56.8446 193.7 57.6275 193.999 58.4626 193.999H59.9696C60.6873 193.999 61.3005 193.791 61.8029 193.381C62.3053 192.971 62.6184 192.443 62.7359 191.799C63.2447 192.456 63.8841 192.99 64.6605 193.394C65.4303 193.797 66.2132 193.999 67.0091 193.999C67.8051 193.999 68.451 193.836 69.0447 193.504C69.6384 193.173 70.095 192.723 70.4278 192.157C70.754 191.591 70.9236 190.946 70.9236 190.23C70.9236 189.898 70.891 189.592 70.8323 189.312L70.6496 188.479H70.6561ZM68.6336 191.721C68.1378 192.209 67.4984 192.456 66.7221 192.469C65.8087 192.483 64.9671 192.19 64.1907 191.584C63.4209 190.979 62.925 190.217 62.7163 189.306L61.842 185.133H65.1041C65.7043 185.133 66.2915 185.277 66.8721 185.57C67.4463 185.862 67.9421 186.26 68.3466 186.761C68.7511 187.262 69.012 187.809 69.136 188.408L69.3187 189.241C69.3643 189.462 69.3839 189.677 69.3839 189.866C69.3839 190.614 69.136 191.233 68.6402 191.714L68.6336 191.721Z" fill="url(#paint6_linear_83_971)"/>
<path d="M89.9933 181.658C90.2477 181.658 90.4565 181.58 90.6196 181.424C90.7827 181.267 90.8675 181.059 90.8675 180.805C90.8675 180.48 90.7305 180.187 90.463 179.939C90.1955 179.692 89.8954 179.568 89.5627 179.568C89.3213 179.568 89.119 179.646 88.9559 179.803C88.7928 179.959 88.708 180.161 88.708 180.395C88.708 180.74 88.8385 181.033 89.0995 181.28C89.3604 181.528 89.6605 181.651 89.9867 181.651L89.9933 181.658Z" fill="url(#paint7_linear_83_971)"/>
<path d="M111.804 190.947L109.148 178.384H107.622L110.296 190.947C110.31 191.025 110.316 191.129 110.316 191.259C110.316 191.604 110.199 191.891 109.957 192.125C109.716 192.359 109.409 192.47 109.037 192.47H106.943C106.421 192.47 105.925 192.281 105.462 191.91C104.999 191.539 104.699 191.09 104.562 190.563L101.978 178.384H100.426L103.035 190.563C103.068 190.745 103.081 190.862 103.081 190.921C103.081 191.37 102.937 191.741 102.644 192.034C102.35 192.327 101.978 192.47 101.528 192.47H99.3034C98.8663 192.47 98.4748 192.314 98.1225 192.001C97.7702 191.689 97.5419 191.292 97.4375 190.81L97.2157 189.782C96.9743 188.662 96.5763 187.692 96.0217 186.879C95.4672 186.065 94.8148 185.414 94.0645 184.939C92.701 184.053 91.1091 183.617 89.2954 183.617C88.6495 183.617 88.0493 183.676 87.4882 183.787C86.9271 183.897 86.4705 184.027 86.1312 184.177L86.9402 185.544C87.2077 185.44 87.5926 185.349 88.0884 185.264C88.5843 185.18 89.1062 185.141 89.6607 185.141C91.1417 185.141 92.3878 185.479 93.3925 186.15C94.593 186.944 95.3693 188.174 95.7282 189.853L95.9304 190.817C96.0087 191.162 96.1587 191.481 96.3936 191.78C96.6285 192.08 96.8895 192.314 97.1896 192.477H86.3987C85.6484 192.477 84.9438 192.255 84.2718 191.806C83.5998 191.357 83.104 190.765 82.7778 190.036L79.5614 183.259L78.1914 183.643L81.2251 190.107C81.3621 190.394 81.4273 190.674 81.4273 190.96C81.4273 191.246 81.349 191.513 81.2055 191.767C81.0881 191.975 80.9119 192.151 80.6771 192.281C80.4422 192.418 80.1617 192.483 79.8354 192.483H74.3291L74.6423 194.006H80.1747C80.6966 194.006 81.1794 193.889 81.6165 193.661C82.0536 193.427 82.3929 193.115 82.6473 192.711C82.693 192.639 82.7452 192.522 82.8039 192.373C83.3454 192.893 83.9522 193.297 84.6372 193.583C85.3157 193.87 86.0203 194.013 86.7379 194.013H102.004C102.546 194.013 103.016 193.876 103.42 193.609C103.825 193.342 104.118 192.991 104.294 192.555C104.686 192.991 105.142 193.342 105.664 193.609C106.186 193.876 106.721 194.013 107.263 194.013H109.396C110.114 194.013 110.707 193.785 111.171 193.329C111.634 192.874 111.869 192.294 111.869 191.591C111.869 191.396 111.849 191.188 111.804 190.966V190.947Z" fill="url(#paint8_linear_83_971)"/>
<path d="M71.3671 3.88574C57.5882 3.88574 46.4189 15.0299 46.4189 28.7777V30.2033H66.4871L67.7136 28.6671H75.0141L76.2406 30.2033H96.3088V28.7777C96.3088 15.0299 85.1395 3.88574 71.3606 3.88574H71.3671Z" fill="url(#paint9_linear_83_971)"/>
<path d="M97.2605 39.9608H45.4656C43.4692 39.9608 41.8447 38.3465 41.8447 36.3481C41.8447 34.3562 43.4627 32.7354 45.4656 32.7354H97.2605C99.2568 32.7354 100.881 34.3497 100.881 36.3481C100.881 38.34 99.2634 39.9608 97.2605 39.9608Z" fill="url(#paint10_linear_83_971)"/>
<path d="M71.8954 15.9673H70.8385C69.488 15.9673 68.3267 15.0234 68.0592 13.702L65.9389 3.39759C65.5735 1.64005 66.924 -0.00683594 68.7182 -0.00683594H74.0222C75.8229 -0.00683594 77.1669 1.64005 76.8015 3.39759L74.6812 13.702C74.4072 15.0169 73.2459 15.9673 71.9019 15.9673H71.8954Z" fill="url(#paint11_linear_83_971)"/>
<path style="mix-blend-mode:multiply" d="M87.3839 9.69824L82.3799 17.2752C81.4665 18.6617 81.6492 20.4974 82.8301 21.6691L83.7565 22.5934C84.9308 23.7651 86.7706 23.9539 88.1603 23.0425L94.3125 18.9937C92.7597 15.3744 90.3719 12.1913 87.3839 9.69824Z" fill="url(#paint12_linear_83_971)"/>
<path style="mix-blend-mode:multiply" d="M54.5741 23.0425C55.9637 23.9539 57.8035 23.7716 58.9779 22.5934L59.9043 21.6691C61.0786 20.4974 61.2678 18.6617 60.3545 17.2752L55.3505 9.69824C52.369 12.1913 49.9746 15.3744 48.4219 18.9937L54.5741 23.0425Z" fill="url(#paint13_linear_83_971)"/>
<path d="M96.2169 44.1339C96.2887 43.5936 96.3409 43.0468 96.3735 42.5H89.4906C89.7189 51.7889 80.7417 60.1796 71.3601 58.8842C78.2691 58.0835 84.5323 53.8915 87.4551 47.5708C88.2118 45.976 88.7468 44.2771 89.1056 42.5H87.2267C86.4308 50.5456 79.6326 56.8272 71.3601 56.8272C63.0875 56.8272 56.2894 50.5456 55.4935 42.5H46.3467C46.3858 43.0468 46.438 43.5936 46.5033 44.1339L50.1111 44.7653C50.3264 45.9435 50.6265 47.0891 51.0245 48.1957L48.2126 50.5391C49.0477 52.5375 50.1372 54.4057 51.442 56.1047L54.8802 54.8484C55.6501 55.7532 56.4851 56.5864 57.392 57.3545L56.1328 60.7849C57.8356 62.0868 59.7015 63.1739 61.7109 64.0071L64.0596 61.2015C65.1687 61.5986 66.317 61.9046 67.4978 62.1129L68.1307 65.7126C69.1876 65.8493 70.2575 65.9274 71.3536 65.9274C72.4496 65.9274 73.5196 65.8493 74.5765 65.7126L75.2093 62.1129C76.3902 61.898 77.5384 61.5986 78.6475 61.2015L80.9962 64.0071C82.9991 63.1739 84.8715 62.0868 86.5743 60.7849L85.3151 57.3545C86.222 56.5864 87.0571 55.7532 87.8269 54.8484L91.2651 56.1047C92.5699 54.4057 93.6595 52.544 94.4946 50.5391L91.6827 48.1957C92.0806 47.0891 92.3873 45.9435 92.596 44.7653L96.2039 44.1339H96.2169Z" fill="url(#paint14_linear_83_971)"/>
<path d="M112.443 10.7992C111.51 11.3004 110.342 10.9554 109.833 10.0181L108.815 8.13686C108.313 7.20602 108.659 6.04083 109.598 5.5331L114.361 2.96839C111.764 1.1783 108.182 1.42566 105.873 3.7365C104.796 4.81055 104.164 6.17102 103.987 7.57054C103.753 9.39318 102.97 11.1052 101.665 12.407L96.3477 17.7122C96.5434 18.1483 96.7261 18.5845 96.8957 19.0271L98.5006 17.4258C99.2574 16.6707 100.49 16.6707 101.247 17.4258C102.004 18.1809 102.004 19.4112 101.247 20.1663L98.1483 23.2582C98.2592 23.779 98.344 24.3127 98.4223 24.8465L104.986 18.2981C106.767 16.521 109.063 15.3493 111.555 14.9913C113.134 14.7634 114.641 13.9758 115.763 12.6088C116.801 11.346 117.29 9.77072 117.238 8.20847L112.462 10.7797L112.443 10.7992Z" fill="url(#paint15_linear_83_971)"/>
<path d="M41.4933 20.1788C40.7365 19.4237 40.7365 18.1934 41.4933 17.4383C42.2501 16.6832 43.4832 16.6832 44.24 17.4383L45.8449 19.0397C46.0145 18.597 46.1972 18.1544 46.3929 17.7247L41.0758 12.4196C39.771 11.1177 38.9881 9.40572 38.7532 7.58309C38.5705 6.18356 37.9442 4.82961 36.8677 3.74904C34.5582 1.44471 30.9765 1.19084 28.3799 2.98093L33.1425 5.54564C34.0754 6.04687 34.4277 7.21205 33.9254 8.14941L32.9076 10.0306C32.4053 10.9615 31.2374 11.313 30.298 10.8118L25.5223 8.24054C25.4701 9.79629 25.9594 11.3716 26.9968 12.6409C28.1124 14.0014 29.626 14.7955 31.2048 15.0233C33.697 15.3814 35.9935 16.5596 37.7746 18.3301L44.3378 24.8786C44.4161 24.3448 44.5075 23.8111 44.6118 23.2903L41.5129 20.1983L41.4933 20.1788Z" fill="url(#paint16_linear_83_971)"/>
<path d="M28.7252 151.701H40.6577L39.8748 148.238H34.7208C33.9379 148.238 33.3507 147.952 32.9593 147.372C32.5679 146.793 32.3721 146.285 32.3721 145.836C32.3721 145.426 32.5091 145.094 32.7897 144.834C33.0702 144.573 33.4551 144.443 33.9379 144.443C34.5707 144.443 35.1122 144.612 35.5624 144.944C36.0126 145.276 36.4562 145.804 36.9064 146.507L39.2029 144.547C38.57 143.467 37.7088 142.601 36.6258 141.95C35.5428 141.299 34.3881 140.974 33.155 140.974C31.8502 140.974 30.7933 141.384 29.9908 142.204C29.1884 143.024 28.7839 144.066 28.7839 145.335C28.7839 146.227 29.1362 147.197 29.8473 148.238H28.001L28.7317 151.701H28.7252Z" fill="white"/>
<path d="M125.778 155.236L125.556 154.234C125.034 151.702 123.971 149.411 122.366 147.36C120.761 145.31 118.83 143.702 116.566 142.524C114.309 141.352 111.927 140.76 109.422 140.76H95.9238L99.623 158.029C99.6948 158.478 99.7339 158.778 99.7339 158.921C99.7339 159.591 99.5186 160.125 99.088 160.516C98.6574 160.906 98.0116 161.101 97.1569 161.101H88.8126C89.6346 160.242 90.2283 159.214 90.6067 157.996C90.9786 156.786 91.1678 155.529 91.1678 154.228C91.1678 152.177 90.6263 150.192 89.5433 148.278C88.4603 146.358 86.9923 144.717 85.146 143.357C83.2997 141.996 81.2903 141.131 79.1243 140.76C78.1913 140.571 77.0496 140.48 75.7056 140.48C71.6737 140.48 67.7723 141.71 64.0014 144.17L63.2707 149.202L71.1127 161.108H57.8361L51.0054 128.86H44.2856L50.7248 159.259C50.8358 159.708 50.7836 160.099 50.5552 160.431C50.3334 160.769 50.0137 160.991 49.6027 161.101H45.8513V161.16H28.2624C26.6966 161.16 25.2352 160.613 23.8912 159.513C22.5472 158.413 21.7056 157.085 21.3729 155.516L19.4679 146.572H12.748L14.6531 155.516C15.1359 157.749 16.1406 159.813 17.6476 161.694C19.1612 163.575 20.9815 165.079 23.1083 166.192C25.2352 167.305 27.4208 167.871 29.6585 167.871H98.6118C100.106 167.871 101.45 167.52 102.644 166.81C103.838 166.101 104.718 165.131 105.279 163.907C106.662 165.137 108.209 166.107 109.931 166.81C111.647 167.52 113.369 167.871 115.085 167.871C117.179 167.871 119.052 167.422 120.715 166.53C122.379 165.639 123.677 164.395 124.61 162.813C125.543 161.232 126.013 159.468 126.013 157.534C126.013 156.714 125.935 155.953 125.791 155.243L125.778 155.236ZM82.9017 157.808C82.0601 159.259 80.54 160.229 78.3349 160.711L70.8321 149.814L70.8843 148.753C73.2004 147.751 75.3664 147.243 77.3823 147.243C78.0152 147.243 78.6676 147.302 79.3396 147.412C80.5726 147.633 81.6556 148.213 82.5886 149.144C83.5215 150.075 84.0239 151.116 84.1022 152.275C84.1413 152.463 84.1609 152.795 84.1609 153.284C84.1609 154.846 83.7433 156.356 82.9017 157.808ZM117.603 159.65C116.592 160.62 115.307 161.101 113.741 161.101C111.914 161.101 110.238 160.542 108.731 159.422C107.224 158.302 106.238 156.87 105.788 155.119L104.164 147.464H110.603C112.547 147.464 114.302 148.083 115.868 149.306C117.434 150.537 118.406 152.079 118.778 153.941L119 154.891C119.071 155.412 119.11 155.783 119.11 156.011C119.11 157.463 118.608 158.673 117.597 159.643L117.603 159.65Z" fill="white"/>
</g>
<defs>
<linearGradient id="paint0_linear_83_971" x1="52.8836" y1="93.2274" x2="61.686" y2="76.3517" gradientUnits="userSpaceOnUse">
<stop stop-color="#5354E4"/>
<stop offset="1" stop-color="#0ABEF2"/>
</linearGradient>
<linearGradient id="paint1_linear_83_971" x1="43.6652" y1="95.1611" x2="48.7592" y2="78.9071" gradientUnits="userSpaceOnUse">
<stop stop-color="#5354E4"/>
<stop offset="1" stop-color="#0ABEF2"/>
</linearGradient>
<linearGradient id="paint2_linear_83_971" x1="76.8605" y1="130.819" x2="58.8189" y2="64.5975" gradientUnits="userSpaceOnUse">
<stop stop-color="#5354E4"/>
<stop offset="1" stop-color="#0ABEF2"/>
</linearGradient>
<linearGradient id="paint3_linear_83_971" x1="41.7607" y1="182.791" x2="43.9202" y2="182.791" gradientUnits="userSpaceOnUse">
<stop stop-color="#FFAF04"/>
<stop offset="0.52" stop-color="#F98429"/>
</linearGradient>
<linearGradient id="paint4_linear_83_971" x1="38.6807" y1="-0.00151817" x2="40.8401" y2="-0.00151817" gradientUnits="userSpaceOnUse">
<stop stop-color="#FFAF04"/>
<stop offset="0.52" stop-color="#F98429"/>
</linearGradient>
<linearGradient id="paint5_linear_83_971" x1="33.9121" y1="188.884" x2="51.475" y2="188.884" gradientUnits="userSpaceOnUse">
<stop stop-color="#FFAF04"/>
<stop offset="0.52" stop-color="#F98429"/>
</linearGradient>
<linearGradient id="paint6_linear_83_971" x1="52.1081" y1="186.149" x2="70.9236" y2="186.149" gradientUnits="userSpaceOnUse">
<stop stop-color="#FFAF04"/>
<stop offset="0.52" stop-color="#F98429"/>
</linearGradient>
<linearGradient id="paint7_linear_83_971" x1="88.7145" y1="180.616" x2="90.874" y2="180.616" gradientUnits="userSpaceOnUse">
<stop stop-color="#FFAF04"/>
<stop offset="0.52" stop-color="#F98429"/>
</linearGradient>
<linearGradient id="paint8_linear_83_971" x1="74.3226" y1="186.195" x2="111.875" y2="186.195" gradientUnits="userSpaceOnUse">
<stop stop-color="#FFAF04"/>
<stop offset="0.52" stop-color="#F98429"/>
</linearGradient>
<linearGradient id="paint9_linear_83_971" x1="46.4189" y1="17.0478" x2="96.3153" y2="17.0478" gradientUnits="userSpaceOnUse">
<stop stop-color="#FFAF04"/>
<stop offset="0.52" stop-color="#F98429"/>
</linearGradient>
<linearGradient id="paint10_linear_83_971" x1="41.8447" y1="36.3481" x2="100.881" y2="36.3481" gradientUnits="userSpaceOnUse">
<stop stop-color="#FFD400"/>
<stop offset="1" stop-color="#FF4D00"/>
</linearGradient>
<linearGradient id="paint11_linear_83_971" x1="71.3669" y1="15.9673" x2="71.3669" y2="-0.00032602" gradientUnits="userSpaceOnUse">
<stop stop-color="#FFD400"/>
<stop offset="1" stop-color="#FF4D00"/>
</linearGradient>
<linearGradient id="paint12_linear_83_971" x1="88.0559" y1="23.6219" x2="88.0559" y2="9.69824" gradientUnits="userSpaceOnUse">
<stop stop-color="#FFD400"/>
<stop offset="1" stop-color="#FF4D00"/>
</linearGradient>
<linearGradient id="paint13_linear_83_971" x1="54.672" y1="23.6219" x2="54.672" y2="9.69824" gradientUnits="userSpaceOnUse">
<stop stop-color="#FFD400"/>
<stop offset="1" stop-color="#FF4D00"/>
</linearGradient>
<linearGradient id="paint14_linear_83_971" x1="46.3532" y1="54.2104" x2="96.3735" y2="54.2104" gradientUnits="userSpaceOnUse">
<stop stop-color="#3BBDFF"/>
<stop offset="1" stop-color="#0055D9"/>
</linearGradient>
<linearGradient id="paint15_linear_83_971" x1="96.3411" y1="13.3249" x2="117.225" y2="13.3249" gradientUnits="userSpaceOnUse">
<stop stop-color="#3BBDFF"/>
<stop offset="1" stop-color="#0055D9"/>
</linearGradient>
<linearGradient id="paint16_linear_83_971" x1="25.5093" y1="13.3244" x2="46.3929" y2="13.3244" gradientUnits="userSpaceOnUse">
<stop stop-color="#3BBDFF"/>
<stop offset="1" stop-color="#0055D9"/>
</linearGradient>
<clipPath id="clip0_83_971">
<rect width="126" height="194" fill="white"/>
</clipPath>
</defs>
</svg>
