<svg width="75" height="76" viewBox="0 0 75 76" fill="none" xmlns="http://www.w3.org/2000/svg">
<path d="M15.4447 29.3828C15.7618 30.6034 16.6241 31.5601 17.7322 31.9105C16.6277 32.2609 15.7618 33.2138 15.4447 34.4382C15.1276 33.2177 14.2653 32.2609 13.1572 31.9105C14.2618 31.5601 15.1276 30.6073 15.4447 29.3828Z" fill="#424242"/>
<path d="M24.9077 21.0098C25.0574 21.5846 25.4636 22.0374 25.9873 22.2028C25.4671 22.3681 25.0574 22.817 24.9077 23.3957C24.7581 22.817 24.3519 22.3681 23.8281 22.2028C24.3483 22.0374 24.7581 21.5885 24.9077 21.0098Z" fill="#424242"/>
<path d="M41.5454 50.1428C59.7448 41.8497 72.6484 30.1694 70.3662 24.0542C68.0841 17.9389 51.4806 19.7045 33.2811 27.9976C15.0817 36.2908 2.17814 47.971 4.46024 54.0863C6.74234 60.2015 23.3459 58.4359 41.5454 50.1428Z" stroke="#424242" stroke-width="0.5" stroke-miterlimit="10"/>
<path d="M25.6065 45.8929C25.6065 45.8929 23.7252 41.1879 25.3749 37.2349C26.5828 34.341 31.4392 35.1206 32.7861 43.1919C34.1329 51.2751 39.6165 59.1063 47.4802 61.0395C47.4802 61.0395 31.7171 63.8586 25.6065 45.8929Z" fill="url(#paint0_linear_83_1005)"/>
<path d="M41.887 59.8615C41.887 59.8615 37.7289 59.3142 33.439 55.4715C29.7334 52.1524 25.643 46.967 22.251 39.9941C22.251 39.9941 28.0267 59.6056 41.887 59.8615Z" fill="#424ACB"/>
<path d="M18.9081 48.9202C18.9081 48.9202 16.3533 44.6207 17.3902 40.4197C18.1491 37.3447 23.059 37.2345 25.5888 44.9475C28.1222 52.6764 34.696 59.4012 42.7414 59.8776C42.7414 59.8776 27.6126 65.5236 18.9081 48.9202Z" fill="url(#paint1_linear_83_1005)"/>
<path d="M41.4125 60.7053C41.4125 60.7053 37.5252 60.3746 32.4906 57.8626C28.1436 55.6932 22.9914 51.8268 18.1064 46.0391C18.1064 46.0391 27.9476 64.3512 41.4125 60.7053Z" fill="#424ACB"/>
<path d="M35.7477 60.1682C42.7277 61.9006 49.6258 56.9357 51.2826 49.2463C52.095 45.4783 53.6271 40.5607 56.3066 38.5763C60.9101 35.1667 63.6429 38.9661 61.8222 43.1042C60.0015 47.2422 60.9172 54.7939 59.4955 60.495C55.5548 76.3031 42.9379 78.0827 30.4921 72.0941C15.9833 65.1134 10.4071 46.4272 13.0937 44.6161C16.2149 42.5096 20.2946 47.8761 23.619 51.9984C25.4219 54.2348 30.1287 58.7744 35.7477 60.1721V60.1682Z" fill="url(#paint2_linear_83_1005)"/>
<path d="M43.0871 2.35547C35.5619 2.35547 29.4619 9.09604 29.4619 17.4115V18.2738H40.4219L41.0918 17.3446H45.0788L45.7487 18.2738H56.7087V17.4115C56.7087 9.09604 50.6087 2.35547 43.0835 2.35547H43.0871Z" fill="url(#paint3_linear_83_1005)"/>
<path d="M57.2295 24.175H28.9423C27.852 24.175 26.9648 23.1986 26.9648 21.9899C26.9648 20.7851 27.8485 19.8047 28.9423 19.8047H57.2295C58.3198 19.8047 59.207 20.7811 59.207 21.9899C59.207 23.1947 58.3234 24.175 57.2295 24.175Z" fill="url(#paint4_linear_83_1005)"/>
<path d="M43.3757 9.66201H42.7985C42.0609 9.66201 41.4267 9.09111 41.2806 8.29185L40.1226 2.05918C39.9231 0.996124 40.6606 0 41.6405 0H44.5372C45.5206 0 46.2546 0.996124 46.0551 2.05918L44.8971 8.29185C44.7475 9.08717 44.1132 9.66201 43.3792 9.66201H43.3757Z" fill="url(#paint5_linear_83_1005)"/>
<path style="mix-blend-mode:multiply" d="M51.8338 5.87109L49.1009 10.4541C48.6021 11.2927 48.7018 12.403 49.3468 13.1117L49.8527 13.6708C50.4941 14.3795 51.4988 14.4937 52.2578 13.9425L55.6178 11.4935C54.7697 9.30438 53.4657 7.37906 51.8338 5.87109Z" fill="url(#paint6_linear_83_1005)"/>
<path style="mix-blend-mode:multiply" d="M33.9156 13.9425C34.6746 14.4937 35.6794 14.3834 36.3207 13.6708L36.8267 13.1117C37.468 12.403 37.5713 11.2927 37.0725 10.4541L34.3396 5.87109C32.7113 7.37906 31.4037 9.30438 30.5557 11.4935L33.9156 13.9425Z" fill="url(#paint7_linear_83_1005)"/>
<path d="M56.658 26.6992C56.6972 26.3724 56.7257 26.0417 56.7435 25.7109H52.9844C53.1091 31.3294 48.2064 36.4045 43.0827 35.621C46.856 35.1367 50.2765 32.6011 51.8728 28.7781C52.2861 27.8134 52.5783 26.7858 52.7742 25.7109H51.7481C51.3134 30.5774 47.6006 34.3768 43.0827 34.3768C38.5647 34.3768 34.852 30.5774 34.4173 25.7109H29.4219C29.4433 26.0417 29.4718 26.3724 29.5074 26.6992L31.4778 27.0811C31.5953 27.7937 31.7592 28.4867 31.9766 29.156L30.4409 30.5734C30.897 31.7822 31.492 32.9122 32.2046 33.9398L34.0824 33.1799C34.5028 33.7272 34.9589 34.2311 35.4541 34.6957L34.7665 36.7707C35.6964 37.5581 36.7155 38.2156 37.8129 38.7196L39.0956 37.0227C39.7013 37.2628 40.3284 37.4479 40.9733 37.5739L41.319 39.7512C41.8962 39.8339 42.4805 39.8811 43.0791 39.8811C43.6777 39.8811 44.2621 39.8339 44.8393 39.7512L45.1849 37.5739C45.8298 37.4439 46.4569 37.2628 47.0626 37.0227L48.3453 38.7196C49.4392 38.2156 50.4618 37.5581 51.3918 36.7707L50.7041 34.6957C51.1993 34.2311 51.6554 33.7272 52.0759 33.1799L53.9536 33.9398C54.6662 32.9122 55.2612 31.7861 55.7173 30.5734L54.1816 29.156C54.399 28.4867 54.5664 27.7937 54.6805 27.0811L56.6508 26.6992H56.658Z" fill="url(#paint8_linear_83_1005)"/>
<path d="M65.5206 6.53654C65.011 6.83971 64.3733 6.63104 64.0953 6.06407L63.5395 4.92621C63.2651 4.36318 63.454 3.65841 63.9671 3.35131L66.5681 1.80003C65.15 0.717287 63.1939 0.866902 61.9325 2.26463C61.3446 2.91427 60.999 3.73716 60.9028 4.58367C60.7746 5.6861 60.347 6.72159 59.6344 7.50904L56.7305 10.7179C56.8374 10.9817 56.9371 11.2455 57.0298 11.5132L57.9063 10.5447C58.3196 10.0879 58.993 10.0879 59.4063 10.5447C59.8197 11.0014 59.8197 11.7455 59.4063 12.2022L57.7139 14.0724C57.7745 14.3874 57.8208 14.7103 57.8635 15.0331L61.448 11.0723C62.4207 9.99738 63.6749 9.28868 65.036 9.07213C65.8982 8.93433 66.7213 8.45792 67.3342 7.6311C67.9007 6.86727 68.1679 5.91446 68.1394 4.96952L65.5312 6.52473L65.5206 6.53654Z" fill="url(#paint9_linear_83_1005)"/>
<path d="M26.7723 12.2088C26.359 11.7521 26.359 11.0079 26.7723 10.5512C27.1856 10.0945 27.859 10.0945 28.2724 10.5512L29.1489 11.5198C29.2415 11.252 29.3413 10.9843 29.4482 10.7244L26.5443 7.51558C25.8317 6.72813 25.4041 5.69264 25.2758 4.59021C25.176 3.7437 24.834 2.92475 24.2461 2.27117C22.9848 0.877379 21.0286 0.723826 19.6105 1.80657L22.2116 3.35785C22.7211 3.66101 22.9135 4.36578 22.6391 4.93275L22.0833 6.07061C21.8089 6.63364 21.1712 6.84625 20.6581 6.54308L18.0499 4.98787C18.0214 5.92887 18.2886 6.88169 18.8552 7.64945C19.4645 8.47233 20.2911 8.95268 21.1533 9.09048C22.5144 9.30703 23.7686 10.0197 24.7414 11.0906L28.3258 15.0515C28.3686 14.7286 28.4184 14.4058 28.4754 14.0908L26.783 12.2206L26.7723 12.2088Z" fill="url(#paint10_linear_83_1005)"/>
<defs>
<linearGradient id="paint0_linear_83_1005" x1="32.9927" y1="56.3935" x2="38.6168" y2="46.658" gradientUnits="userSpaceOnUse">
<stop stop-color="#5354E4"/>
<stop offset="1" stop-color="#0ABEF2"/>
</linearGradient>
<linearGradient id="paint1_linear_83_1005" x1="27.9583" y1="57.5625" x2="31.3028" y2="47.9264" gradientUnits="userSpaceOnUse">
<stop stop-color="#5354E4"/>
<stop offset="1" stop-color="#0ABEF2"/>
</linearGradient>
<linearGradient id="paint2_linear_83_1005" x1="46.0877" y1="79.13" x2="34.1882" y2="39.6931" gradientUnits="userSpaceOnUse">
<stop stop-color="#5354E4"/>
<stop offset="1" stop-color="#0ABEF2"/>
</linearGradient>
<linearGradient id="paint3_linear_83_1005" x1="29.4619" y1="10.3166" x2="56.7123" y2="10.3166" gradientUnits="userSpaceOnUse">
<stop stop-color="#FFAF04"/>
<stop offset="0.52" stop-color="#F98429"/>
</linearGradient>
<linearGradient id="paint4_linear_83_1005" x1="26.9648" y1="21.9899" x2="59.207" y2="21.9899" gradientUnits="userSpaceOnUse">
<stop stop-color="#FFD400"/>
<stop offset="1" stop-color="#FF4D00"/>
</linearGradient>
<linearGradient id="paint5_linear_83_1005" x1="43.0871" y1="9.66201" x2="43.0871" y2="0.00393756" gradientUnits="userSpaceOnUse">
<stop stop-color="#FFD400"/>
<stop offset="1" stop-color="#FF4D00"/>
</linearGradient>
<linearGradient id="paint6_linear_83_1005" x1="52.2008" y1="14.2929" x2="52.2008" y2="5.87109" gradientUnits="userSpaceOnUse">
<stop stop-color="#FFD400"/>
<stop offset="1" stop-color="#FF4D00"/>
</linearGradient>
<linearGradient id="paint7_linear_83_1005" x1="33.9691" y1="14.2929" x2="33.9691" y2="5.87109" gradientUnits="userSpaceOnUse">
<stop stop-color="#FFD400"/>
<stop offset="1" stop-color="#FF4D00"/>
</linearGradient>
<linearGradient id="paint8_linear_83_1005" x1="29.4254" y1="32.7941" x2="56.7435" y2="32.7941" gradientUnits="userSpaceOnUse">
<stop stop-color="#3BBDFF"/>
<stop offset="1" stop-color="#0055D9"/>
</linearGradient>
<linearGradient id="paint9_linear_83_1005" x1="56.7269" y1="8.06419" x2="68.1323" y2="8.06419" gradientUnits="userSpaceOnUse">
<stop stop-color="#3BBDFF"/>
<stop offset="1" stop-color="#0055D9"/>
</linearGradient>
<linearGradient id="paint10_linear_83_1005" x1="18.0428" y1="8.06286" x2="29.4482" y2="8.06286" gradientUnits="userSpaceOnUse">
<stop stop-color="#3BBDFF"/>
<stop offset="1" stop-color="#0055D9"/>
</linearGradient>
</defs>
</svg>
