<svg width="167" height="76" viewBox="0 0 167 76" fill="none" xmlns="http://www.w3.org/2000/svg">
<path d="M107.445 29.3828C107.762 30.6034 108.624 31.5601 109.732 31.9105C108.628 32.2609 107.762 33.2138 107.445 34.4382C107.128 33.2177 106.265 32.2609 105.157 31.9105C106.262 31.5601 107.128 30.6073 107.445 29.3828Z" fill="#424242"/>
<path d="M116.908 21.0098C117.057 21.5846 117.464 22.0374 117.987 22.2028C117.467 22.3681 117.057 22.817 116.908 23.3957C116.758 22.817 116.352 22.3681 115.828 22.2028C116.348 22.0374 116.758 21.5885 116.908 21.0098Z" fill="#424242"/>
<path d="M133.545 50.1428C151.745 41.8497 164.648 30.1694 162.366 24.0542C160.084 17.9389 143.481 19.7045 125.281 27.9976C107.082 36.2908 94.1781 47.971 96.4602 54.0863C98.7423 60.2015 115.346 58.4359 133.545 50.1428Z" stroke="#424242" stroke-width="0.5" stroke-miterlimit="10"/>
<path d="M117.606 45.8929C117.606 45.8929 115.725 41.1879 117.375 37.2349C118.583 34.341 123.439 35.1206 124.786 43.1919C126.133 51.2751 131.616 59.1063 139.48 61.0395C139.48 61.0395 123.717 63.8586 117.606 45.8929Z" fill="url(#paint0_linear_84_3373)"/>
<path d="M133.888 59.8615C133.888 59.8615 129.729 59.3142 125.439 55.4715C121.734 52.1524 117.644 46.967 114.251 39.9941C114.251 39.9941 120.027 59.6056 133.888 59.8615Z" fill="#424ACB"/>
<path d="M110.908 48.9202C110.908 48.9202 108.353 44.6207 109.39 40.4197C110.149 37.3447 115.059 37.2345 117.588 44.9475C120.122 52.6764 126.696 59.4012 134.741 59.8776C134.741 59.8776 119.612 65.5236 110.908 48.9202Z" fill="url(#paint1_linear_84_3373)"/>
<path d="M133.412 60.7053C133.412 60.7053 129.525 60.3746 124.491 57.8626C120.144 55.6932 114.991 51.8268 110.106 46.0391C110.106 46.0391 119.948 64.3512 133.412 60.7053Z" fill="#424ACB"/>
<path d="M127.747 60.1682C134.727 61.9006 141.625 56.9357 143.282 49.2463C144.095 45.4783 145.627 40.5607 148.306 38.5763C152.91 35.1667 155.642 38.9661 153.822 43.1042C152.001 47.2422 152.917 54.7939 151.495 60.495C147.554 76.3031 134.937 78.0827 122.492 72.0941C107.983 65.1134 102.407 46.4272 105.093 44.6161C108.214 42.5096 112.294 47.8761 115.618 51.9984C117.421 54.2348 122.128 58.7744 127.747 60.1721V60.1682Z" fill="url(#paint2_linear_84_3373)"/>
<path d="M135.087 2.35547C127.562 2.35547 121.462 9.09604 121.462 17.4115V18.2738H132.422L133.092 17.3446H137.079L137.749 18.2738H148.709V17.4115C148.709 9.09604 142.609 2.35547 135.084 2.35547H135.087Z" fill="url(#paint3_linear_84_3373)"/>
<path d="M149.23 24.175H120.943C119.853 24.175 118.965 23.1986 118.965 21.9899C118.965 20.7851 119.849 19.8047 120.943 19.8047H149.23C150.32 19.8047 151.208 20.7811 151.208 21.9899C151.208 23.1947 150.324 24.175 149.23 24.175Z" fill="url(#paint4_linear_84_3373)"/>
<path d="M135.376 9.66201H134.798C134.061 9.66201 133.427 9.09111 133.281 8.29185L132.123 2.05918C131.923 0.996124 132.661 0 133.64 0H136.537C137.521 0 138.255 0.996124 138.055 2.05918L136.897 8.29185C136.747 9.08717 136.113 9.66201 135.379 9.66201H135.376Z" fill="url(#paint5_linear_84_3373)"/>
<path style="mix-blend-mode:multiply" d="M143.834 5.87109L141.101 10.4541C140.603 11.2927 140.702 12.403 141.347 13.1117L141.853 13.6708C142.495 14.3795 143.499 14.4937 144.258 13.9425L147.618 11.4935C146.77 9.30438 145.466 7.37906 143.834 5.87109Z" fill="url(#paint6_linear_84_3373)"/>
<path style="mix-blend-mode:multiply" d="M125.916 13.9425C126.675 14.4937 127.679 14.3834 128.321 13.6708L128.827 13.1117C129.468 12.403 129.571 11.2927 129.073 10.4541L126.34 5.87109C124.711 7.37906 123.404 9.30438 122.556 11.4935L125.916 13.9425Z" fill="url(#paint7_linear_84_3373)"/>
<path d="M148.658 26.6992C148.698 26.3724 148.726 26.0417 148.744 25.7109H144.985C145.11 31.3294 140.207 36.4045 135.083 35.621C138.856 35.1367 142.277 32.6011 143.873 28.7781C144.287 27.8134 144.579 26.7858 144.775 25.7109H143.749C143.314 30.5774 139.601 34.3768 135.083 34.3768C130.565 34.3768 126.852 30.5774 126.418 25.7109H121.422C121.444 26.0417 121.472 26.3724 121.508 26.6992L123.478 27.0811C123.596 27.7937 123.76 28.4867 123.977 29.156L122.441 30.5734C122.897 31.7822 123.493 32.9122 124.205 33.9398L126.083 33.1799C126.503 33.7272 126.959 34.2311 127.455 34.6957L126.767 36.7707C127.697 37.5581 128.716 38.2156 129.813 38.7196L131.096 37.0227C131.702 37.2628 132.329 37.4479 132.974 37.5739L133.319 39.7512C133.897 39.8339 134.481 39.8811 135.08 39.8811C135.678 39.8811 136.263 39.8339 136.84 39.7512L137.185 37.5739C137.83 37.4439 138.457 37.2628 139.063 37.0227L140.346 38.7196C141.44 38.2156 142.462 37.5581 143.392 36.7707L142.705 34.6957C143.2 34.2311 143.656 33.7272 144.076 33.1799L145.954 33.9398C146.667 32.9122 147.262 31.7861 147.718 30.5734L146.182 29.156C146.399 28.4867 146.567 27.7937 146.681 27.0811L148.651 26.6992H148.658Z" fill="url(#paint8_linear_84_3373)"/>
<path d="M157.521 6.53654C157.011 6.83971 156.373 6.63104 156.095 6.06407L155.539 4.92621C155.265 4.36318 155.454 3.65841 155.967 3.35131L158.568 1.80003C157.15 0.717287 155.194 0.866902 153.933 2.26463C153.345 2.91427 152.999 3.73716 152.903 4.58367C152.775 5.6861 152.347 6.72159 151.634 7.50904L148.73 10.7179C148.837 10.9817 148.937 11.2455 149.03 11.5132L149.906 10.5447C150.32 10.0879 150.993 10.0879 151.406 10.5447C151.82 11.0014 151.82 11.7455 151.406 12.2022L149.714 14.0724C149.774 14.3874 149.821 14.7103 149.864 15.0331L153.448 11.0723C154.421 9.99738 155.675 9.28868 157.036 9.07213C157.898 8.93433 158.721 8.45792 159.334 7.6311C159.901 6.86727 160.168 5.91446 160.139 4.96952L157.531 6.52473L157.521 6.53654Z" fill="url(#paint9_linear_84_3373)"/>
<path d="M118.772 12.2088C118.359 11.7521 118.359 11.0079 118.772 10.5512C119.186 10.0945 119.859 10.0945 120.272 10.5512L121.149 11.5198C121.242 11.252 121.341 10.9843 121.448 10.7244L118.544 7.51558C117.832 6.72813 117.404 5.69264 117.276 4.59021C117.176 3.7437 116.834 2.92475 116.246 2.27117C114.985 0.877379 113.029 0.723826 111.611 1.80657L114.212 3.35785C114.721 3.66101 114.913 4.36578 114.639 4.93275L114.083 6.07061C113.809 6.63364 113.171 6.84625 112.658 6.54308L110.05 4.98787C110.021 5.92887 110.289 6.88169 110.855 7.64945C111.464 8.47233 112.291 8.95268 113.153 9.09048C114.514 9.30703 115.769 10.0197 116.741 11.0906L120.326 15.0515C120.369 14.7286 120.418 14.4058 120.475 14.0908L118.783 12.2206L118.772 12.2088Z" fill="url(#paint10_linear_84_3373)"/>
<path d="M19.6558 52.4928C19.8886 52.4928 20.076 52.4174 20.2123 52.2668C20.3486 52.1163 20.4167 51.9155 20.4167 51.6707C20.4167 51.3695 20.2974 51.0934 20.0533 50.8487C19.8091 50.604 19.5479 50.4785 19.2583 50.4785C19.0482 50.4785 18.8778 50.5538 18.7415 50.7044C18.6053 50.855 18.5371 51.037 18.5371 51.2566C18.5371 51.5766 18.6564 51.859 18.8892 52.11C19.122 52.361 19.3775 52.4865 19.6501 52.4865L19.6558 52.4928Z" fill="url(#paint11_linear_84_3373)"/>
<path d="M16.9714 52.4928C17.1928 52.4928 17.3746 52.4174 17.5222 52.2668C17.6642 52.1163 17.738 51.9155 17.738 51.6707C17.738 51.3695 17.6187 51.0934 17.3746 50.8487C17.1304 50.604 16.8692 50.4785 16.5796 50.4785C16.3695 50.4785 16.1991 50.5538 16.0628 50.7044C15.9265 50.855 15.8584 51.037 15.8584 51.2566C15.8584 51.5766 15.9776 51.859 16.2105 52.11C16.4433 52.361 16.6988 52.4865 16.9714 52.4865V52.4928Z" fill="url(#paint12_linear_84_3373)"/>
<path d="M25.3685 52.4242H24.0171L25.5616 60.3807C25.573 60.5125 25.5502 60.6129 25.4821 60.6945C25.414 60.7761 25.3345 60.8137 25.2266 60.8137H16.5555C15.9025 60.8137 15.3062 60.569 14.7668 60.0796C14.2273 59.5901 13.8809 58.9815 13.739 58.2598L13.0746 54.7334H11.7061L12.3932 58.2598C12.5351 58.9815 12.8361 59.6529 13.2847 60.2741C13.7333 60.8953 14.2727 61.3847 14.8974 61.7424C15.522 62.1001 16.1694 62.282 16.8337 62.282H25.8342C26.1578 62.282 26.4361 62.1628 26.6576 61.9244C26.879 61.6859 26.9926 61.3847 26.9926 61.0271C26.9926 60.8953 26.9869 60.7949 26.9699 60.7259L25.3629 52.418L25.3685 52.4242Z" fill="url(#paint13_linear_84_3373)"/>
<path d="M43.6878 56.9666C43.5174 56.1007 43.1824 55.3101 42.677 54.5885C42.1773 53.8669 41.564 53.3021 40.8485 52.888C40.133 52.4738 39.3834 52.273 38.5998 52.273H34.392L35.6243 58.6985C35.664 58.8742 35.6811 59.0373 35.6811 59.1942C35.6811 59.6711 35.5391 60.0601 35.2495 60.3613C34.9599 60.6625 34.5851 60.8131 34.1138 60.8131H32.8248C32.4613 60.8131 32.115 60.6688 31.797 60.3801C31.479 60.0915 31.2802 59.7464 31.2007 59.3448L28.8498 47.1465H27.5381L29.8663 59.3448C30.0253 60.1542 30.4171 60.8445 31.0417 61.4218C31.6664 61.999 32.3478 62.2877 33.0746 62.2877H34.3864C35.011 62.2877 35.5448 62.0869 35.982 61.6916C36.4193 61.2963 36.6918 60.788 36.7941 60.1668C37.237 60.8005 37.7935 61.3151 38.4692 61.7041C39.1393 62.0932 39.8207 62.2877 40.5135 62.2877C41.2062 62.2877 41.7684 62.1308 42.2852 61.8108C42.8019 61.4908 43.1994 61.0578 43.489 60.5119C43.7729 59.966 43.9206 59.3448 43.9206 58.6545C43.9206 58.3345 43.8922 58.0396 43.8411 57.7698L43.6821 56.9666H43.6878ZM41.9274 60.0915C41.4958 60.5621 40.9394 60.8005 40.2636 60.8131C39.4686 60.8256 38.7361 60.5433 38.0604 59.9597C37.3903 59.3762 36.9587 58.642 36.777 57.7635L36.0161 53.7414H38.8553C39.3778 53.7414 39.8888 53.8794 40.3942 54.1618C40.8939 54.4441 41.3255 54.8269 41.6776 55.3101C42.0296 55.7932 42.2568 56.3203 42.3647 56.8976L42.5237 57.7008C42.5634 57.9141 42.5804 58.1212 42.5804 58.3032C42.5804 59.0248 42.3647 59.6209 41.9331 60.0852L41.9274 60.0915Z" fill="url(#paint14_linear_84_3373)"/>
<path d="M60.5176 50.3912C60.7391 50.3912 60.9208 50.3159 61.0627 50.1653C61.2047 50.0147 61.2785 49.8139 61.2785 49.5692C61.2785 49.2554 61.1593 48.9731 60.9264 48.7346C60.6936 48.4962 60.4324 48.377 60.1428 48.377C59.9327 48.377 59.7567 48.4523 59.6147 48.6029C59.4727 48.7535 59.3989 48.948 59.3989 49.1739C59.3989 49.5064 59.5125 49.7888 59.7396 50.0272C59.9668 50.2657 60.228 50.3849 60.5119 50.3849L60.5176 50.3912Z" fill="url(#paint15_linear_84_3373)"/>
<path d="M79.5031 59.3448L77.1919 47.2344H75.8632L78.1913 59.3448C78.2027 59.4201 78.2084 59.5205 78.2084 59.646C78.2084 59.9786 78.1062 60.2547 77.8961 60.4806C77.6859 60.7065 77.4191 60.8131 77.0954 60.8131H75.2726C74.8183 60.8131 74.3867 60.6312 73.9836 60.2735C73.5804 59.9158 73.3192 59.4829 73.1999 58.9746L70.9512 47.2344H69.5998L71.8712 58.9746C71.8996 59.1503 71.9109 59.2632 71.9109 59.3197C71.9109 59.7527 71.786 60.1104 71.5305 60.3927C71.2749 60.6751 70.9512 60.8131 70.5594 60.8131H68.6231C68.2426 60.8131 67.9019 60.6625 67.5952 60.3613C67.2886 60.0601 67.0899 59.6774 66.999 59.213L66.8059 58.2216C66.5958 57.1423 66.2494 56.2074 65.7668 55.423C65.2841 54.6387 64.7162 54.0112 64.0632 53.5531C62.8764 52.6997 61.4909 52.2793 59.9122 52.2793C59.3501 52.2793 58.8276 52.3358 58.3393 52.4425C57.8509 52.5492 57.4534 52.6747 57.1582 52.819L57.8623 54.1367C58.0951 54.0363 58.4301 53.9484 58.8617 53.8669C59.2933 53.7853 59.7476 53.7477 60.2302 53.7477C61.5192 53.7477 62.6038 54.074 63.4783 54.7203C64.5232 55.4858 65.1989 56.6717 65.5112 58.2906L65.6873 59.2193C65.7554 59.5519 65.886 59.8594 66.0904 60.148C66.2949 60.4366 66.522 60.6625 66.7832 60.8194H57.391C56.7379 60.8194 56.1247 60.6061 55.5398 60.1731C54.9549 59.7401 54.5233 59.1691 54.2394 58.4663L51.4399 51.9342L50.2474 52.3044L52.8879 58.5354C53.0072 58.8114 53.064 59.0813 53.064 59.3574C53.064 59.6335 52.9958 59.8907 52.8709 60.1355C52.7687 60.3362 52.6154 60.5057 52.4109 60.6312C52.2065 60.7629 51.9623 60.8257 51.6784 60.8257H46.8857L47.1583 62.294H51.9737C52.428 62.294 52.8482 62.1811 53.2286 61.9614C53.6091 61.7355 53.9044 61.4343 54.1258 61.0453C54.1656 60.9763 54.211 60.8633 54.2621 60.719C54.7334 61.221 55.2615 61.61 55.8578 61.8861C56.4483 62.1622 57.0616 62.3003 57.6863 62.3003H70.974C71.4453 62.3003 71.8541 62.1685 72.2062 61.9112C72.5583 61.654 72.8138 61.3151 72.9671 60.8947C73.3078 61.3151 73.7053 61.654 74.1596 61.9112C74.6139 62.1685 75.0795 62.3003 75.5508 62.3003H77.4077C78.0323 62.3003 78.5491 62.0807 78.9523 61.6414C79.3554 61.2022 79.5599 60.6437 79.5599 59.966C79.5599 59.7778 79.5428 59.577 79.5031 59.3636V59.3448Z" fill="url(#paint16_linear_84_3373)"/>
<path d="M11.1524 22.0291H19.4813L18.9349 19.3521H15.3374C14.7909 19.3521 14.3811 19.1307 14.1079 18.6828C13.8346 18.235 13.698 17.8425 13.698 17.4952C13.698 17.1782 13.7936 16.9216 13.9895 16.7203C14.1853 16.519 14.454 16.4184 14.7909 16.4184C15.2327 16.4184 15.6106 16.5492 15.9248 16.8059C16.239 17.0625 16.5487 17.4701 16.8629 18.0136L18.4659 16.4989C18.0241 15.6636 17.423 14.9943 16.6671 14.4911C15.9112 13.9879 15.1051 13.7363 14.2445 13.7363C13.3337 13.7363 12.596 14.0533 12.0359 14.6874C11.4758 15.3214 11.1934 16.1265 11.1934 17.1078C11.1934 17.7972 11.4393 18.5469 11.9357 19.3521H10.647L11.157 22.0291H11.1524Z" fill="black"/>
<path d="M78.8946 24.7609L78.7398 23.9859C78.3755 22.0285 77.6332 20.2572 76.513 18.6721C75.3927 17.087 74.0448 15.8441 72.4646 14.9333C70.889 14.0276 69.2269 13.5696 67.4782 13.5696H58.0564L60.6384 26.9196C60.6885 27.2668 60.7158 27.4983 60.7158 27.609C60.7158 28.1273 60.5656 28.5399 60.265 28.8418C59.9645 29.1438 59.5136 29.2947 58.9171 29.2947H53.0928C53.6665 28.6305 54.0809 27.8354 54.3451 26.8945C54.6046 25.9585 54.7367 24.9873 54.7367 23.9809C54.7367 22.3958 54.3587 20.861 53.6028 19.3816C52.8469 17.8972 51.8223 16.6291 50.5335 15.5774C49.2448 14.5257 47.8422 13.8565 46.3304 13.5696C45.6792 13.4237 44.8823 13.3533 43.9442 13.3533C41.1299 13.3533 38.4068 14.3043 35.7747 16.2064L35.2646 20.0962L40.7383 29.2998H31.4713L26.7035 4.37109H22.0131L26.5077 27.8707C26.5851 28.2179 26.5487 28.5198 26.3893 28.7764C26.2344 29.0381 26.0113 29.2092 25.7244 29.2947H23.106V29.34H10.8289C9.73603 29.34 8.71597 28.9173 7.77789 28.0669C6.83981 27.2165 6.25237 26.19 6.02012 24.9772L4.69041 18.0632H0L1.32971 24.9772C1.66669 26.7032 2.36798 28.2984 3.4199 29.7526C4.47639 31.2069 5.7469 32.3693 7.23144 33.2298C8.71597 34.0903 10.2415 34.528 11.8035 34.528H59.9326C60.9754 34.528 61.9135 34.2563 62.7468 33.7078C63.5802 33.1593 64.1949 32.4096 64.5866 31.4635C65.552 32.4146 66.6312 33.1644 67.8334 33.7078C69.0311 34.2563 70.2333 34.528 71.4309 34.528C72.8927 34.528 74.1996 34.1808 75.3609 33.4914C76.5221 32.8021 77.4283 31.8409 78.0795 30.6181C78.7307 29.3954 79.0585 28.0317 79.0585 26.5372C79.0585 25.9031 79.0039 25.3144 78.9037 24.7659L78.8946 24.7609ZM48.967 26.7485C48.3796 27.8707 47.3186 28.6204 45.7794 28.9928L40.5425 20.5692L40.5789 19.749C42.1955 18.974 43.7074 18.5815 45.1145 18.5815C45.5562 18.5815 46.0116 18.6268 46.4807 18.7124C47.3413 18.8835 48.0972 19.3313 48.7484 20.0509C49.3996 20.7705 49.7503 21.5756 49.8049 22.4713C49.8322 22.6172 49.8459 22.8739 49.8459 23.2513C49.8459 24.4589 49.5545 25.6264 48.967 26.7485ZM73.1887 28.1726C72.4829 28.9224 71.5858 29.2947 70.4928 29.2947C69.2178 29.2947 68.0475 28.862 66.9955 27.9965C65.9436 27.131 65.256 26.0239 64.9418 24.6703L63.8079 18.7526H68.3025C69.6595 18.7526 70.8845 19.2307 71.9774 20.1767C73.0703 21.1277 73.7488 22.3203 74.0084 23.7595L74.1632 24.4942C74.2133 24.8967 74.2406 25.1836 74.2406 25.3597C74.2406 26.4818 73.89 27.4178 73.1841 28.1676L73.1887 28.1726Z" fill="black"/>
<defs>
<linearGradient id="paint0_linear_84_3373" x1="124.993" y1="56.3935" x2="130.617" y2="46.658" gradientUnits="userSpaceOnUse">
<stop stop-color="#5354E4"/>
<stop offset="1" stop-color="#0ABEF2"/>
</linearGradient>
<linearGradient id="paint1_linear_84_3373" x1="119.958" y1="57.5625" x2="123.302" y2="47.9264" gradientUnits="userSpaceOnUse">
<stop stop-color="#5354E4"/>
<stop offset="1" stop-color="#0ABEF2"/>
</linearGradient>
<linearGradient id="paint2_linear_84_3373" x1="138.087" y1="79.13" x2="126.188" y2="39.6931" gradientUnits="userSpaceOnUse">
<stop stop-color="#5354E4"/>
<stop offset="1" stop-color="#0ABEF2"/>
</linearGradient>
<linearGradient id="paint3_linear_84_3373" x1="121.462" y1="10.3166" x2="148.712" y2="10.3166" gradientUnits="userSpaceOnUse">
<stop stop-color="#FFAF04"/>
<stop offset="0.52" stop-color="#F98429"/>
</linearGradient>
<linearGradient id="paint4_linear_84_3373" x1="118.965" y1="21.9899" x2="151.208" y2="21.9899" gradientUnits="userSpaceOnUse">
<stop stop-color="#FFD400"/>
<stop offset="1" stop-color="#FF4D00"/>
</linearGradient>
<linearGradient id="paint5_linear_84_3373" x1="135.087" y1="9.66201" x2="135.087" y2="0.00393756" gradientUnits="userSpaceOnUse">
<stop stop-color="#FFD400"/>
<stop offset="1" stop-color="#FF4D00"/>
</linearGradient>
<linearGradient id="paint6_linear_84_3373" x1="144.201" y1="14.2929" x2="144.201" y2="5.87109" gradientUnits="userSpaceOnUse">
<stop stop-color="#FFD400"/>
<stop offset="1" stop-color="#FF4D00"/>
</linearGradient>
<linearGradient id="paint7_linear_84_3373" x1="125.969" y1="14.2929" x2="125.969" y2="5.87109" gradientUnits="userSpaceOnUse">
<stop stop-color="#FFD400"/>
<stop offset="1" stop-color="#FF4D00"/>
</linearGradient>
<linearGradient id="paint8_linear_84_3373" x1="121.426" y1="32.7941" x2="148.744" y2="32.7941" gradientUnits="userSpaceOnUse">
<stop stop-color="#3BBDFF"/>
<stop offset="1" stop-color="#0055D9"/>
</linearGradient>
<linearGradient id="paint9_linear_84_3373" x1="148.727" y1="8.06419" x2="160.132" y2="8.06419" gradientUnits="userSpaceOnUse">
<stop stop-color="#3BBDFF"/>
<stop offset="1" stop-color="#0055D9"/>
</linearGradient>
<linearGradient id="paint10_linear_84_3373" x1="110.043" y1="8.06286" x2="121.448" y2="8.06286" gradientUnits="userSpaceOnUse">
<stop stop-color="#3BBDFF"/>
<stop offset="1" stop-color="#0055D9"/>
</linearGradient>
<linearGradient id="paint11_linear_84_3373" x1="18.5371" y1="51.4825" x2="20.4167" y2="51.4825" gradientUnits="userSpaceOnUse">
<stop stop-color="#FFAF04"/>
<stop offset="0.52" stop-color="#F98429"/>
</linearGradient>
<linearGradient id="paint12_linear_84_3373" x1="15.8584" y1="-124.723" x2="17.738" y2="-124.723" gradientUnits="userSpaceOnUse">
<stop stop-color="#FFAF04"/>
<stop offset="0.52" stop-color="#F98429"/>
</linearGradient>
<linearGradient id="paint13_linear_84_3373" x1="11.7061" y1="57.3563" x2="26.9926" y2="57.3563" gradientUnits="userSpaceOnUse">
<stop stop-color="#FFAF04"/>
<stop offset="0.52" stop-color="#F98429"/>
</linearGradient>
<linearGradient id="paint14_linear_84_3373" x1="27.5438" y1="54.7202" x2="43.9206" y2="54.7202" gradientUnits="userSpaceOnUse">
<stop stop-color="#FFAF04"/>
<stop offset="0.52" stop-color="#F98429"/>
</linearGradient>
<linearGradient id="paint15_linear_84_3373" x1="59.4046" y1="49.3872" x2="61.2842" y2="49.3872" gradientUnits="userSpaceOnUse">
<stop stop-color="#FFAF04"/>
<stop offset="0.52" stop-color="#F98429"/>
</linearGradient>
<linearGradient id="paint16_linear_84_3373" x1="46.8801" y1="54.7642" x2="79.5655" y2="54.7642" gradientUnits="userSpaceOnUse">
<stop stop-color="#FFAF04"/>
<stop offset="0.52" stop-color="#F98429"/>
</linearGradient>
</defs>
</svg>
