<svg width="51" height="51" viewBox="0 0 51 51" fill="none" xmlns="http://www.w3.org/2000/svg">
<path d="M50.5 21.3666C50.5001 21.2146 50.4833 21.0629 50.45 20.9146L47.7417 8.6896C47.2385 6.36927 45.9528 4.29249 44.1002 2.8075C42.2477 1.3225 39.9409 0.519586 37.5667 0.533378H13.4333C11.0605 0.521502 8.75569 1.3253 6.90485 2.81013C5.05401 4.29497 3.76958 6.37068 3.26667 8.6896L0.550003 20.9146C0.516686 21.0629 0.499917 21.2146 0.500003 21.3666V23.45C0.498322 25.4783 1.23942 27.437 2.58334 28.9562V40.1166C2.58664 42.8782 3.68517 45.5258 5.63796 47.4786C7.59075 49.4314 10.2383 50.5299 13 50.5332H38C40.7617 50.5299 43.4093 49.4314 45.362 47.4786C47.3148 45.5258 48.4134 42.8782 48.4167 40.1166V28.9562C49.7606 27.437 50.5017 25.4783 50.5 23.45V21.3666ZM4.66667 21.5937L7.33334 9.59376C7.63551 8.20263 8.40629 6.95747 9.5167 6.06664C10.6271 5.17582 12.0098 4.69337 13.4333 4.70003H15.0833V10.95C15.0833 11.5025 15.3028 12.0324 15.6935 12.4231C16.0842 12.8138 16.6141 13.0333 17.1667 13.0333C17.7192 13.0333 18.2491 12.8138 18.6398 12.4231C19.0305 12.0324 19.25 11.5025 19.25 10.95V4.70003H31.75V10.95C31.75 11.5025 31.9695 12.0324 32.3602 12.4231C32.7509 12.8138 33.2808 13.0333 33.8333 13.0333C34.3859 13.0333 34.9158 12.8138 35.3065 12.4231C35.6972 12.0324 35.9167 11.5025 35.9167 10.95V4.70003H37.5667C38.9902 4.69337 40.3729 5.17582 41.4833 6.06664C42.5937 6.95747 43.3645 8.20263 43.6667 9.59376L46.3333 21.5937V23.45C46.3333 24.555 45.8943 25.6148 45.1129 26.3962C44.3315 27.1776 43.2717 27.6166 42.1667 27.6166H40.0833C38.9783 27.6166 37.9185 27.1776 37.1371 26.3962C36.3557 25.6148 35.9167 24.555 35.9167 23.45C35.9167 22.8974 35.6972 22.3675 35.3065 21.9768C34.9158 21.5861 34.3859 21.3666 33.8333 21.3666C33.2808 21.3666 32.7509 21.5861 32.3602 21.9768C31.9695 22.3675 31.75 22.8974 31.75 23.45C31.75 24.555 31.311 25.6148 30.5296 26.3962C29.7482 27.1776 28.6884 27.6166 27.5833 27.6166H23.4167C22.3116 27.6166 21.2518 27.1776 20.4704 26.3962C19.689 25.6148 19.25 24.555 19.25 23.45C19.25 22.8974 19.0305 22.3675 18.6398 21.9768C18.2491 21.5861 17.7192 21.3666 17.1667 21.3666C16.6141 21.3666 16.0842 21.5861 15.6935 21.9768C15.3028 22.3675 15.0833 22.8974 15.0833 23.45C15.0833 24.555 14.6443 25.6148 13.8629 26.3962C13.0815 27.1776 12.0217 27.6166 10.9167 27.6166H8.83334C7.72827 27.6166 6.66846 27.1776 5.88706 26.3962C5.10566 25.6148 4.66667 24.555 4.66667 23.45V21.5937ZM38 46.3666H13C11.3424 46.3666 9.75269 45.7081 8.58059 44.536C7.40848 43.3639 6.75 41.7742 6.75 40.1166V31.5187C7.43042 31.6949 8.13048 31.7838 8.83334 31.7833H10.9167C12.0996 31.7839 13.2691 31.532 14.3469 31.0445C15.4247 30.557 16.386 29.845 17.1667 28.9562C17.9473 29.845 18.9086 30.557 19.9865 31.0445C21.0643 31.532 22.2337 31.7839 23.4167 31.7833H27.5833C28.7663 31.7839 29.9357 31.532 31.0136 31.0445C32.0914 30.557 33.0527 29.845 33.8333 28.9562C34.614 29.845 35.5753 30.557 36.6531 31.0445C37.7309 31.532 38.9004 31.7839 40.0833 31.7833H42.1667C42.8695 31.7838 43.5696 31.6949 44.25 31.5187V40.1166C44.25 41.7742 43.5915 43.3639 42.4194 44.536C41.2473 45.7081 39.6576 46.3666 38 46.3666Z" fill="url(#paint0_linear_84_4320)"/>
<defs>
<linearGradient id="paint0_linear_84_4320" x1="0.49669" y1="25.5332" x2="50.499" y2="25.5332" gradientUnits="userSpaceOnUse">
<stop stop-color="#FFAF04"/>
<stop offset="0.52" stop-color="#F98429"/>
</linearGradient>
</defs>
</svg>
