<svg width="1556" height="523" viewBox="0 0 1556 523" fill="none" xmlns="http://www.w3.org/2000/svg">
<g clip-path="url(#clip0_83_760)">
<rect width="1556" height="523" rx="56" fill="#FDF2EB"/>
<path opacity="0.1" d="M1025.72 0C1142.87 52.9632 1205.27 125.95 1244.69 202.12C1207.35 126.807 1148.67 54.0344 1038.12 0H1040.65C1146.28 52.1309 1204.28 121.436 1241.62 193.609C1206.22 122.183 1151.62 53.0395 1051.78 0H1054.14C1149.36 51.0431 1203.21 116.787 1238.56 185.096C1205.02 117.432 1154.25 51.8158 1064.12 0H1066.36C1152.15 49.7349 1202.08 112.015 1235.49 176.585C1203.76 112.574 1156.61 50.3981 1075.3 0H1077.43C1154.65 48.2393 1200.9 107.135 1232.43 168.072C1202.46 107.619 1158.74 48.803 1085.48 0H1087.5C1156.9 46.5762 1199.66 102.163 1229.36 159.56C1201.12 102.58 1160.65 47.0571 1094.76 0H1096.69C1158.93 44.7689 1198.39 97.107 1226.3 151.049C1199.74 97.4685 1162.37 45.1784 1103.22 0H1105.07C1160.77 42.8272 1197.08 91.9785 1223.24 142.536C1198.33 92.2902 1163.91 43.1754 1110.95 0H1112.73C1162.43 40.7728 1195.73 86.7836 1220.17 134.025C1196.89 87.0522 1165.29 41.0696 1118 0H1119.72C1163.92 38.6156 1194.35 81.5324 1217.11 125.512C1195.42 81.7596 1166.52 38.8644 1124.44 0H1126.1C1165.25 36.3672 1192.94 76.2248 1214.04 117.001C1193.92 76.4205 1167.61 36.5745 1130.33 0H1131.93C1166.43 34.0343 1191.51 70.8724 1210.98 108.488C1192.41 71.0333 1168.56 34.2067 1135.69 0H1137.25C1167.49 31.6284 1190.06 65.4753 1207.91 99.9772C1190.87 65.6096 1169.39 31.7726 1140.57 0H1142.1C1168.42 29.1578 1188.59 60.04 1204.85 91.4645C1189.32 60.1478 1170.1 29.2739 1145.01 0H1146.5C1169.21 26.6292 1187.1 54.5683 1201.78 82.9518C1187.76 54.6562 1170.71 26.7187 1149.04 0H1150.49C1169.9 24.0459 1185.59 49.065 1198.72 74.4407C1186.18 49.1363 1171.22 24.1188 1152.7 0H1154.11C1170.48 21.4161 1184.07 43.5336 1195.66 65.928C1184.58 43.5883 1171.62 21.4708 1156 0H1157.39C1170.97 18.7449 1182.53 37.9756 1192.59 57.4152C1182.97 38.0154 1171.93 18.7847 1158.96 0H1160.34C1171.36 16.0389 1180.98 32.3961 1189.53 48.9042C1181.36 32.4243 1172.16 16.0671 1161.63 0H1162.97C1171.65 13.298 1179.43 26.7933 1186.46 40.3915C1179.73 26.8132 1172.31 13.3163 1164.01 0H1165.32C1171.85 10.5339 1177.86 21.174 1183.4 31.8804C1178.1 21.1873 1172.36 10.5456 1166.11 0H1167.41C1171.98 7.74336 1176.28 15.5381 1180.33 23.3677C1176.46 15.5447 1172.34 7.74999 1167.97 0H1169.26C1172.03 4.93618 1174.7 9.88895 1177.27 14.855C1174.81 9.8906 1172.25 4.93784 1169.6 0H1170.86C1171.99 2.11243 1173.11 4.22651 1174.2 6.34391C1173.15 4.22651 1172.08 2.11243 1171 0H1174.46C1184.29 21.0331 1192.58 42.1988 1200 63.149C1201.04 65.991 1202.06 68.8263 1203.07 71.6617C1204.1 74.502 1205.13 77.3407 1206.13 80.1744C1207.17 83.0148 1208.19 85.8534 1209.2 88.6871C1210.23 91.5275 1211.26 94.3645 1212.26 97.1999C1213.3 100.04 1214.32 102.877 1215.33 105.713C1216.36 108.553 1217.39 111.392 1218.39 114.224C1219.43 117.064 1220.45 119.903 1221.45 122.736C1222.49 125.577 1223.51 128.415 1224.52 131.249C1225.56 134.089 1226.58 136.928 1227.58 139.762C1228.62 142.602 1229.64 145.441 1230.65 148.275C1231.69 151.115 1232.71 153.954 1233.71 156.786C1234.75 159.626 1235.77 162.465 1236.78 165.298C1237.82 168.14 1238.84 170.977 1239.84 173.811C1240.88 176.651 1241.9 179.49 1242.91 182.324C1243.95 185.164 1244.97 188.003 1245.97 190.836C1247.01 193.677 1248.03 196.515 1249.04 199.348C1250.08 202.188 1251.1 205.027 1252.1 207.86C1253.14 210.701 1254.16 213.539 1255.17 216.373C1256.21 219.213 1257.23 222.052 1258.23 224.886C1259.27 227.726 1260.29 230.565 1261.3 233.398C1262.34 236.239 1263.36 239.077 1264.36 241.911C1264.92 243.443 1265.48 244.974 1266.03 246.504C1308.48 325.645 1381.36 371.936 1565 342.772V343.883C1385.56 372.368 1311.55 328.996 1268.47 253.292L1269.09 255.017C1311.31 333.715 1383.62 379.925 1565 351.761V352.878C1387.77 380.385 1314.37 337.076 1271.54 261.805L1272.15 263.529C1314.14 341.789 1385.85 387.931 1565 360.754V361.868C1389.98 388.408 1317.19 345.155 1274.6 270.318L1275.22 272.042C1316.96 349.854 1388.1 395.904 1565 369.721V370.831C1392.21 396.399 1320 353.228 1277.67 278.831L1278.28 280.555C1319.78 357.912 1390.35 403.877 1565 378.678V379.794C1394.29 404.42 1322.71 361.238 1280.64 287.182L1281.19 288.774C1322.43 365.855 1392.36 411.89 1565 387.632V388.75C1396.08 412.48 1325.18 369.101 1283.4 295.168L1283.88 296.559C1324.82 373.615 1394.06 419.924 1565 396.568V397.675C1397.65 420.536 1327.45 376.818 1285.99 302.813L1286.39 304.02C1327.02 381.237 1395.54 427.969 1565 405.485V406.599C1399.04 428.617 1329.58 384.437 1288.45 310.225L1288.78 311.232C1329.08 388.755 1396.83 436.042 1565 414.402V415.521C1400.29 436.72 1331.6 391.981 1290.8 317.456L1291.06 318.25C1331.03 396.188 1397.98 444.122 1565 423.31V424.416C1401.46 444.795 1333.53 399.458 1293.08 324.544L1293.23 325.02C1332.85 403.504 1399.01 452.181 1565 432.189V433.301C1402.5 452.875 1335.36 406.836 1295.27 331.419L1295.3 331.517C1334.56 410.688 1399.86 460.249 1565 441.061V442.181C1404.25 460.867 1337.79 414.603 1297.99 339.273C1336.97 418.392 1401.58 468.216 1565 449.934V451.041C1406.46 468.785 1340.6 422.635 1301.06 347.786C1339.79 426.407 1403.84 476.094 1565 458.775V459.886C1408.69 476.694 1343.41 430.663 1304.12 356.299C1342.61 434.419 1406.1 483.968 1565 467.608V468.73C1410.88 484.613 1346.22 438.689 1307.18 364.812C1345.43 442.429 1408.33 491.857 1565 476.44V477.546C1413.1 492.506 1349.02 446.709 1310.25 373.324C1348.24 450.433 1410.58 499.707 1565 485.238V486.351C1415.3 500.395 1351.82 454.726 1313.31 381.837C1351.05 458.432 1412.82 507.561 1565 494.028V495.154C1417.48 508.296 1354.63 462.743 1316.38 390.35C1353.86 466.432 1415.04 515.431 1565 502.821V503.922C1419.69 516.159 1357.42 470.748 1319.44 398.862C1356.67 474.421 1417.28 523.252 1565 511.571V512.687C1421.87 524.031 1360.22 478.755 1322.51 407.374C1359.48 482.408 1419.5 531.087 1565 520.317V521.441C1424.04 531.904 1363.01 486.757 1325.57 415.885C1362.28 490.393 1421.71 538.923 1565 529.055V530.161C1426.23 539.742 1365.8 494.751 1328.63 424.397C1365.08 498.37 1423.94 546.722 1565 537.76V538.883C1428.4 547.595 1368.6 502.743 1331.7 432.91C1367.88 506.348 1426.15 554.54 1565 546.464V547.581C1430.57 555.431 1371.38 510.73 1334.76 441.421C1370.68 514.315 1428.35 562.337 1565 555.146V556.258C1432.74 563.252 1374.17 518.71 1337.83 449.932C1373.47 522.279 1430.56 570.117 1565 563.804V564.933C1434.88 571.085 1376.95 526.693 1340.89 458.443C1376.26 530.239 1432.74 577.911 1565 572.461V573.569C1402.23 580.324 1353.77 506.931 1318.54 407C1317.5 404.183 1316.48 401.348 1315.47 398.488C1314.44 395.672 1313.42 392.839 1312.41 389.975C1311.37 387.161 1310.35 384.326 1309.34 381.464C1308.31 378.649 1307.29 375.813 1306.28 372.951C1305.24 370.134 1304.22 367.3 1303.21 364.439C1302.18 361.623 1301.16 358.788 1300.15 355.926C1299.12 353.109 1298.09 350.277 1297.08 347.413C1296.05 344.598 1295.03 341.762 1294.02 338.902C1292.99 336.085 1291.96 333.251 1290.95 330.389C1289.92 327.574 1288.9 324.738 1287.89 321.877C1286.85 319.059 1285.83 316.226 1284.82 313.364C1283.79 310.548 1282.77 307.713 1281.76 304.851C1280.72 302.036 1279.7 299.2 1278.69 296.34C1277.66 293.525 1276.64 290.689 1275.63 287.827C1274.59 285.012 1273.57 282.177 1272.56 279.315C1271.53 276.499 1270.51 273.664 1269.5 270.802C1268.47 267.985 1267.44 265.151 1266.43 262.289C1265.4 259.474 1264.38 256.638 1263.37 253.778C1262.33 250.963 1261.31 248.127 1260.3 245.265C1259.27 242.448 1258.25 239.615 1257.24 236.753C1256.2 233.937 1255.18 231.102 1254.17 228.24C1253.14 225.425 1252.12 222.589 1251.11 219.727C1250.08 216.938 1249.07 214.13 1248.07 211.297C1208.77 131.715 1145.75 54.9148 1023 0H1025.72H1025.72Z" fill="url(#paint0_linear_83_760)"/>
<path opacity="0.1" d="M0.0123987 20.9267C1.03736 14.0848 2.15324 7.10919 3.36143 0H4.28583C2.70292 9.30627 1.28258 18.377 0.0123987 27.2259V20.9281V20.9267ZM61.123 0C36.0748 155.813 56.6663 244.94 103.489 292.616C143.529 333.383 202.789 343.871 269.091 339.877C271.312 339.497 273.532 339.118 275.76 338.746C279.002 338.187 282.25 337.633 285.507 337.088C288.748 336.529 291.997 335.975 295.254 335.431C298.495 334.872 301.744 334.318 305 333.772C308.242 333.213 311.49 332.659 314.747 332.115C317.989 331.556 321.237 331.002 324.494 330.458C327.736 329.899 330.984 329.345 334.241 328.8C337.482 328.24 340.731 327.687 343.987 327.142C347.229 326.583 350.478 326.029 353.734 325.484C356.976 324.925 360.224 324.372 363.481 323.827C366.723 323.268 369.971 322.714 373.228 322.17C376.469 321.611 379.718 321.057 382.975 320.511C386.216 319.952 389.465 319.398 392.721 318.854C395.963 318.295 399.211 317.741 402.468 317.197C405.71 316.638 408.958 316.084 412.215 315.539C415.456 314.979 418.705 314.426 421.962 313.881C425.203 313.322 428.452 312.768 431.708 312.223C434.95 311.664 438.198 311.11 441.455 310.566C444.697 310.007 447.945 309.453 451.202 308.909C454.444 308.35 457.692 307.796 460.949 307.25C464.19 306.691 467.439 306.137 470.696 305.593C473.937 305.034 477.186 304.48 480.442 303.936C483.684 303.377 486.932 302.823 490.189 302.278C493.431 301.718 496.679 301.166 499.936 300.62C503.177 300.061 506.426 299.507 509.683 298.962C512.923 298.403 516.173 297.849 519.429 297.305C716.532 263.317 943.4 253.356 1020.5 480.108C1029.38 506.208 1036.63 529.801 1043 550.993H1042.05C1035.69 529.865 1028.46 506.363 1019.64 480.4C957.839 298.662 799.373 269.455 637.369 282.615C796.263 271.401 950.001 303.097 1010.75 481.765C1019.4 507.188 1026.5 530.23 1032.75 550.993H1031.8C1025.57 530.295 1018.48 507.342 1009.89 482.058C948.089 300.32 789.625 271.112 627.621 284.274C786.514 273.058 940.253 304.756 1001.01 483.423C1009.42 508.171 1016.38 530.664 1022.51 550.993H1021.55C1015.44 530.729 1008.51 508.327 1000.14 483.715C938.344 301.977 779.88 272.769 617.874 285.931C776.768 274.714 930.506 306.411 991.259 485.081C999.446 509.158 1006.25 531.099 1012.26 550.993H1011.3C1005.32 531.167 998.533 509.316 990.392 485.374C928.594 303.636 770.13 274.428 608.126 287.589C767.02 276.374 920.758 308.071 981.51 486.739C989.471 510.149 996.126 531.54 1002.01 550.994H1001.06C995.189 531.609 988.56 510.309 980.644 487.032C918.847 305.294 760.382 276.086 598.378 289.248C757.271 278.033 911.011 309.73 971.762 488.398C979.496 511.145 986 531.987 991.76 550.994H990.805C985.065 532.055 978.587 511.306 970.897 488.69C909.101 306.951 750.637 277.743 588.631 290.905C747.525 279.69 901.263 311.387 962.016 490.055C969.526 512.143 975.875 532.434 981.51 550.994H980.556C974.941 532.503 968.616 512.305 961.151 490.348C899.354 308.61 740.89 279.402 578.884 292.564C737.779 281.348 891.516 313.044 952.269 491.713C959.557 513.145 965.75 532.886 971.261 550.996H970.305C964.815 532.958 958.647 513.309 951.404 492.007C889.607 310.268 731.143 281.06 569.137 294.222C728.031 283.008 881.771 314.704 942.522 493.372C949.588 514.151 955.626 533.341 961.009 550.996H960.052C954.691 533.412 948.679 514.316 941.657 493.664C879.86 311.925 721.396 282.716 559.392 295.879C718.286 284.664 872.024 316.361 932.777 495.029C939.621 515.159 945.502 533.799 950.756 550.996H949.802C944.568 533.871 938.714 515.327 931.911 495.322C870.115 313.584 711.651 284.376 549.645 297.538C708.539 286.321 862.278 318.019 923.03 496.687C929.655 516.173 935.378 534.261 940.502 550.996H939.546C934.441 534.335 928.747 516.341 922.163 496.979C860.367 315.241 701.903 286.033 539.898 299.195C698.792 287.979 852.531 319.675 913.283 498.344C919.69 517.19 925.253 534.725 930.249 550.996H929.293C924.318 534.799 918.784 517.359 912.418 498.638C850.621 316.9 692.157 287.691 530.152 300.853C689.045 289.638 842.784 321.334 903.536 500.003C909.726 518.209 915.131 535.195 919.992 550.997H919.035C914.192 535.271 908.82 518.38 902.671 500.296C840.875 318.558 682.409 289.35 520.406 302.512C679.3 291.298 833.039 322.994 893.791 501.661C899.766 519.232 905.006 535.666 909.736 550.997H908.778C904.07 535.743 898.858 519.403 892.924 501.953C831.128 320.215 672.661 291.007 510.658 304.169C669.549 292.952 823.29 324.651 884.043 503.318C889.803 520.257 894.879 536.141 899.475 550.997H898.518C893.944 536.217 888.896 520.431 883.176 503.612C821.38 321.874 662.914 292.665 500.911 305.827C659.805 294.613 813.544 326.309 874.296 504.977C879.842 521.288 884.755 536.62 889.216 550.999H888.258C883.821 536.699 878.936 521.463 873.431 505.27C811.634 323.532 653.169 294.323 491.164 307.486C650.055 296.272 803.797 327.968 864.549 506.635C869.882 522.322 874.631 537.101 878.954 550.999H877.996C873.697 537.18 868.977 522.496 863.683 506.927C801.886 325.191 643.421 295.981 481.418 309.143C640.31 297.927 794.05 329.623 854.802 508.293C859.924 523.357 864.507 537.585 868.69 550.999H867.733C863.573 537.665 859.019 523.533 853.937 508.586C792.141 326.848 633.675 297.64 471.671 310.801C630.565 299.585 784.305 331.283 845.056 509.951C849.967 524.397 854.382 538.072 858.426 550.999H857.468C853.448 538.154 849.062 524.573 844.191 510.243C782.395 328.505 623.929 299.295 461.926 312.459C620.819 301.243 774.558 332.94 835.31 511.608C840.012 525.437 844.259 538.561 848.161 550.999H847.203C843.327 538.644 839.108 525.616 834.445 511.901C772.649 330.163 614.183 300.955 452.179 314.117C611.071 302.903 764.813 334.599 825.564 513.267C830.057 526.482 834.135 539.056 837.893 551H836.935C833.2 539.14 829.154 526.663 824.697 513.56C762.9 331.822 604.435 302.614 442.432 315.776C601.323 304.559 755.063 336.256 815.817 514.925C820.103 527.53 824.011 539.552 827.624 551H826.666C823.077 539.636 819.199 527.711 814.952 515.217C753.155 333.479 594.69 304.269 432.685 317.433C591.578 306.216 745.319 337.913 806.07 516.582C810.149 528.581 813.887 540.05 817.354 551H816.395C812.954 540.136 809.247 528.763 805.205 516.876C743.408 335.139 584.944 305.931 422.94 319.091C581.834 307.876 735.572 339.572 796.325 518.241C800.198 529.637 803.764 540.553 807.083 551H806.122C802.83 540.637 799.295 529.818 795.458 518.533C733.661 336.795 575.196 307.586 413.192 320.748C572.084 309.533 725.824 341.23 786.576 519.898C790.246 530.692 793.638 541.057 796.807 551H795.848C792.707 541.143 789.344 530.875 785.711 520.19C723.915 338.452 565.448 309.243 403.445 322.405C562.339 311.189 716.077 342.886 776.83 521.555C780.296 531.75 783.515 541.564 786.531 551H785.571C782.581 541.651 779.393 531.934 775.963 521.848C714.167 340.11 555.701 310.899 393.697 324.064C552.588 312.847 706.331 344.546 767.081 523.213C770.346 532.813 773.391 542.073 776.254 551H775.294C772.458 542.161 769.444 532.998 766.216 523.505C704.42 341.767 545.953 312.558 383.95 325.721C542.844 314.504 696.582 346.203 757.335 524.871C760.397 533.878 763.267 542.586 765.974 551H765.014C762.334 542.674 759.496 534.064 756.47 525.163C694.673 343.424 536.209 314.216 374.203 327.378C533.096 316.161 686.836 347.86 747.588 526.528C750.449 534.945 753.143 543.1 755.693 551H754.732C752.21 543.19 749.548 535.131 746.723 526.821C683.261 340.18 517.842 314.419 351.341 330.201C346.55 331.048 341.836 331.86 337.198 332.629C333.913 333.201 330.663 333.754 327.452 334.288C324.166 334.858 320.916 335.412 317.705 335.945C314.419 336.515 311.169 337.07 307.958 337.603C304.672 338.175 301.423 338.727 298.211 339.26C294.926 339.83 291.676 340.384 288.465 340.917C285.179 341.489 281.929 342.041 278.718 342.576C275.432 343.146 272.182 343.7 268.971 344.233C265.685 344.805 262.436 345.357 259.224 345.89C255.939 346.462 252.689 347.014 249.477 347.549C246.192 348.12 242.942 348.673 239.731 349.206C236.445 349.777 233.195 350.33 229.984 350.864C226.698 351.436 223.448 351.988 220.237 352.521C216.951 353.093 213.702 353.645 210.49 354.178C207.205 354.75 203.955 355.302 200.744 355.837C197.458 356.409 194.208 356.961 190.997 357.494C187.711 358.066 184.461 358.618 181.25 359.151C177.964 359.723 174.715 360.275 171.503 360.81C168.218 361.381 164.968 361.934 161.757 362.467C158.471 363.038 155.221 363.591 152.01 364.125C148.724 364.697 145.474 365.249 142.263 365.782C138.977 366.354 135.727 366.906 132.516 367.439C129.231 368.011 125.981 368.563 122.769 369.098C119.484 369.67 116.234 370.222 113.023 370.755C109.737 371.327 106.487 371.879 103.276 372.412C99.9902 372.984 96.7404 373.536 93.5291 374.071C90.2434 374.642 86.9936 375.195 83.7823 375.728C80.4967 376.299 77.2468 376.852 74.0355 377.386C63.6468 379.193 53.6203 380.816 44.0072 382.2C29.1039 384.347 14.3935 385.987 0 386.968V386.051C2.96192 385.848 5.93486 385.621 8.92019 385.365C5.9321 385.563 2.95916 385.73 0 385.87V384.957C6.16217 384.666 12.3863 384.246 18.667 383.706C12.3808 384.125 6.15528 384.413 0 384.563V383.65C9.31971 383.422 18.802 382.874 28.4137 382.049C18.7882 382.688 9.30455 383.028 0 383.024V382.111C12.4277 382.116 25.1749 381.508 38.1591 380.39C25.1487 381.256 12.3987 381.571 0 381.229V380.317C15.4777 380.746 31.5038 380.143 47.9059 378.732C31.4597 379.824 15.4309 380.043 0 379.159V378.247C18.4589 379.308 37.7817 378.783 57.6527 377.075C37.7142 378.399 18.3887 378.443 0 376.788V375.875C21.3616 377.805 44.0003 377.43 67.3995 375.418C43.9053 376.978 21.2624 376.762 0 374.082V373.163C24.1761 376.224 50.1542 376.082 77.1462 373.761C50.0247 375.562 24.0384 374.995 0 371V370.076C26.8859 374.561 56.2351 374.74 86.893 372.104C56.0657 374.15 26.7013 373.141 0 367.512V366.578C29.4759 372.821 62.2347 373.404 96.6384 370.445C62.0115 372.745 29.2307 371.186 0 363.559V362.615C31.9295 370.989 68.1406 372.077 106.385 368.788C67.8541 371.346 31.6112 369.13 0 359.086V358.129C34.2232 369.062 73.9405 370.759 116.132 367.131C73.5795 369.957 33.8155 366.959 0 354.027V353.046C36.331 367.027 79.6163 369.453 125.879 365.474C79.1645 368.576 35.8116 364.661 0 348.287V347.28C38.2198 364.879 85.1517 368.157 135.624 363.817C84.5855 367.205 37.5599 362.219 0 341.758V340.716C39.8509 362.596 90.519 366.875 145.371 362.159C89.815 365.848 39.0147 359.613 0 334.297V333.206C41.1693 360.159 95.6878 365.611 155.118 360.502C94.8117 364.507 40.1057 356.822 0 325.728V324.561C42.1061 357.548 100.614 364.37 164.864 358.845C99.5177 363.184 40.7463 353.794 0 315.769V314.518C42.4532 354.623 104.912 363.11 174.06 357.236L174.155 357.217C106.611 361.639 46.1219 351.344 5.36176 309.843C3.53226 307.98 1.74822 306.048 0 304.057V302.669C1.95487 304.925 3.95519 307.107 6.012 309.202C48.0533 352.007 111.288 361.429 181.615 355.757L181.984 355.685C115.213 359.787 55.4843 349.294 15.1099 308.186C9.71784 302.695 4.67156 296.657 0.00137764 290.037V288.435C4.85203 295.436 10.1118 301.795 15.7602 307.545C57.3923 349.933 119.805 359.588 189.306 354.264L190.013 354.126C123.936 357.943 64.8839 347.283 24.8567 306.527C15.4709 296.97 7.13478 285.756 0.00137764 272.692V270.765C7.26979 284.39 15.8235 296.029 25.5056 305.887C66.774 347.904 128.463 357.756 197.235 352.738L198.172 352.558C132.735 356.114 74.3083 345.298 34.6021 304.869C20.5406 290.551 8.8334 272.517 0 250.1V247.576C8.88162 270.887 20.8175 289.532 35.2509 304.227C76.1833 345.904 137.206 355.937 205.302 351.202L206.519 350.972C141.65 354.298 83.7713 343.35 44.3475 303.21C24.2615 282.737 8.97254 254.687 0.0123987 217.082V213.04C8.7907 252.399 24.3442 281.519 45.0101 302.561C85.6573 343.946 146.115 354.127 213.638 349.63L215.063 349.365C150.687 352.492 93.2839 341.434 54.1067 301.545C6.27651 252.844 -14.3164 161.194 12.8313 0H13.7557C-13.3755 160.952 7.1086 252.389 54.7569 300.903C95.1561 342.036 155.127 352.344 222.151 348.051L223.769 347.758C159.815 350.715 102.82 339.561 63.8534 299.886C16.1872 251.353 -4.42772 160.164 22.2998 0H23.2242C-3.4868 159.922 17.0179 250.899 64.5037 299.246C104.715 340.189 164.316 350.594 230.966 346.458L232.719 346.139C169.088 348.967 112.405 337.738 73.6016 298.228C26.0979 249.863 5.45957 159.139 31.7683 0H32.6927C6.39774 158.895 26.9287 249.407 74.2491 297.589C114.34 338.408 173.701 348.872 240.105 344.836L242.008 344.5C178.564 347.254 122.059 335.986 83.347 296.571C36.0087 248.373 15.3427 158.117 41.2382 0H42.1612C16.2809 157.873 36.8394 247.917 83.9958 295.93C124.035 336.697 183.296 347.185 249.597 343.192L251.609 342.847C188.224 345.577 131.775 334.297 93.0924 294.912C45.9221 246.885 25.2397 157.085 50.719 0H51.6407C26.1765 156.842 46.7515 246.428 93.7412 294.273C133.779 335.04 193.041 345.528 259.343 341.534L261.354 341.19C197.969 343.92 141.52 332.639 102.838 293.255C55.8356 245.397 35.138 156.058 60.1999 0H61.1216H61.123Z" fill="url(#paint1_linear_83_760)"/>
</g>
<defs>
<linearGradient id="paint0_linear_83_760" x1="1022.96" y1="287" x2="1564.99" y2="287" gradientUnits="userSpaceOnUse">
<stop stop-color="#FFAF04"/>
<stop offset="0.52" stop-color="#F98429"/>
</linearGradient>
<linearGradient id="paint1_linear_83_760" x1="-0.0690366" y1="275.5" x2="1042.98" y2="275.5" gradientUnits="userSpaceOnUse">
<stop stop-color="#FFAF04"/>
<stop offset="0.52" stop-color="#F98429"/>
</linearGradient>
<clipPath id="clip0_83_760">
<rect width="1556" height="523" rx="56" fill="white"/>
</clipPath>
</defs>
</svg>
