<svg width="1920" height="344" viewBox="0 0 1920 344" fill="none" xmlns="http://www.w3.org/2000/svg">
<g clip-path="url(#clip0_58_10342)">
<rect width="1920" height="344" transform="matrix(-1 0 0 1 1920 0)" fill="#202020"/>
<ellipse opacity="0.2" cx="588.5" cy="278.5" rx="588.5" ry="278.5" transform="matrix(-1 0 0 1 1631 -52)" fill="url(#paint0_radial_58_10342)" fill-opacity="0.8"/>
<g opacity="0.05" clip-path="url(#clip1_58_10342)">
<path d="M325.887 331.091C321.958 331.091 318.774 327.907 318.774 323.98C318.774 320.053 321.958 316.869 325.887 316.869C329.815 316.869 333 320.053 333 323.98C333 327.907 329.815 331.091 325.887 331.091Z" fill="#E0E0E0"/>
<path d="M273.213 323.98C273.213 325.866 273.963 327.675 275.297 329.008C276.631 330.342 278.44 331.091 280.327 331.091C282.213 331.091 284.023 330.342 285.357 329.008C286.691 327.675 287.44 325.866 287.44 323.98C287.44 323.046 287.256 322.122 286.898 321.259C286.541 320.396 286.017 319.612 285.357 318.952C284.696 318.292 283.912 317.768 283.049 317.41C282.186 317.053 281.261 316.869 280.327 316.869C279.393 316.869 278.468 317.053 277.605 317.41C276.742 317.768 275.957 318.292 275.297 318.952C274.636 319.612 274.112 320.396 273.755 321.259C273.398 322.122 273.213 323.046 273.213 323.98Z" fill="#E0E0E0"/>
<path d="M227.683 323.98C227.683 325.866 228.432 327.675 229.766 329.008C231.1 330.342 232.909 331.091 234.796 331.091C236.683 331.091 238.492 330.342 239.826 329.008C241.16 327.675 241.909 325.866 241.909 323.98C241.909 323.046 241.725 322.122 241.368 321.259C241.01 320.396 240.486 319.612 239.826 318.952C239.165 318.292 238.381 317.768 237.518 317.41C236.655 317.053 235.73 316.869 234.796 316.869C233.862 316.869 232.937 317.053 232.074 317.41C231.211 317.768 230.427 318.292 229.766 318.952C229.105 319.612 228.582 320.396 228.224 321.259C227.867 322.122 227.683 323.046 227.683 323.98Z" fill="#E0E0E0"/>
<path d="M182.152 323.98C182.152 325.866 182.901 327.675 184.235 329.008C185.569 330.342 187.378 331.091 189.265 331.091C191.152 331.091 192.961 330.342 194.295 329.008C195.629 327.675 196.378 325.866 196.378 323.98C196.378 323.046 196.194 322.122 195.837 321.259C195.48 320.396 194.956 319.612 194.295 318.952C193.634 318.292 192.85 317.768 191.987 317.41C191.124 317.053 190.199 316.869 189.265 316.869C187.378 316.869 185.569 317.618 184.235 318.952C182.901 320.285 182.152 322.094 182.152 323.98Z" fill="#E0E0E0"/>
<path d="M136.592 323.98C136.592 324.917 136.777 325.844 137.136 326.708C137.496 327.573 138.022 328.358 138.686 329.019C139.35 329.68 140.137 330.203 141.004 330.558C141.87 330.914 142.798 331.095 143.735 331.091C145.621 331.091 147.431 330.342 148.765 329.008C150.099 327.675 150.848 325.866 150.848 323.98C150.848 323.046 150.664 322.122 150.307 321.259C149.949 320.396 149.425 319.612 148.765 318.952C148.104 318.292 147.32 317.768 146.457 317.41C145.594 317.053 144.669 316.869 143.735 316.869C142.798 316.865 141.87 317.046 141.004 317.402C140.137 317.758 139.35 318.281 138.686 318.942C138.022 319.602 137.496 320.388 137.136 321.252C136.777 322.117 136.592 323.044 136.592 323.98Z" fill="#E0E0E0"/>
<path d="M98.1748 331.091C94.2463 331.091 91.0616 327.907 91.0616 323.98C91.0616 320.053 94.2463 316.869 98.1748 316.869C102.103 316.869 105.288 320.053 105.288 323.98C105.288 327.907 102.103 331.091 98.1748 331.091Z" fill="#E0E0E0"/>
<path d="M45.5309 323.98C45.5309 325.866 46.2804 327.675 47.6143 329.008C48.9483 330.342 50.7576 331.091 52.6441 331.091C54.5307 331.091 56.3399 330.342 57.6739 329.008C59.0079 327.675 59.7573 325.866 59.7573 323.98C59.7573 322.094 59.0079 320.285 57.6739 318.952C56.3399 317.618 54.5307 316.869 52.6441 316.869C51.71 316.869 50.785 317.053 49.922 317.41C49.059 317.768 48.2749 318.292 47.6143 318.952C46.9538 319.612 46.4298 320.396 46.0724 321.259C45.7149 322.122 45.5309 323.046 45.5309 323.98Z" fill="#E0E0E0"/>
<path d="M0.000164032 323.98C0.000164032 325.866 0.749593 327.675 2.08359 329.008C3.41758 330.342 5.22681 331.091 7.11336 331.091C8.99991 331.091 10.8091 330.342 12.1431 329.008C13.4771 327.675 14.2266 325.866 14.2266 323.98C14.2266 323.046 14.0426 322.122 13.6851 321.259C13.3276 320.396 12.8037 319.612 12.1431 318.952C11.4826 318.292 10.6985 317.768 9.83546 317.41C8.97245 317.053 8.04749 316.869 7.11336 316.869C5.22681 316.869 3.41758 317.618 2.08359 318.952C0.749593 320.285 0.000164032 322.094 0.000164032 323.98Z" fill="#E0E0E0"/>
<path d="M318.773 281.019C318.773 282.905 319.523 284.714 320.857 286.047C322.191 287.381 324 288.13 325.887 288.13C327.771 288.122 329.576 287.371 330.908 286.039C332.24 284.707 332.992 282.903 333 281.019C333 279.133 332.251 277.325 330.917 275.991C329.583 274.657 327.773 273.908 325.887 273.908C324 273.908 322.191 274.657 320.857 275.991C319.523 277.325 318.773 279.133 318.773 281.019Z" fill="#E0E0E0"/>
<path d="M273.213 281.019C273.221 282.903 273.973 284.707 275.305 286.039C276.638 287.371 278.443 288.122 280.327 288.13C282.213 288.13 284.023 287.381 285.357 286.047C286.691 284.714 287.44 282.905 287.44 281.019C287.44 279.133 286.691 277.325 285.357 275.991C284.023 274.657 282.213 273.908 280.327 273.908C278.44 273.908 276.631 274.657 275.297 275.991C273.963 277.325 273.213 279.133 273.213 281.019Z" fill="#E0E0E0"/>
<path d="M227.683 281.019C227.683 282.905 228.432 284.714 229.766 286.047C231.1 287.381 232.909 288.13 234.796 288.13C236.683 288.13 238.492 287.381 239.826 286.047C241.16 284.714 241.909 282.905 241.909 281.019C241.909 279.133 241.16 277.325 239.826 275.991C238.492 274.657 236.683 273.908 234.796 273.908C232.909 273.908 231.1 274.657 229.766 275.991C228.432 277.325 227.683 279.133 227.683 281.019Z" fill="#E0E0E0"/>
<path d="M182.152 281.019C182.152 282.905 182.901 284.714 184.235 286.047C185.569 287.381 187.378 288.13 189.265 288.13C191.152 288.13 192.961 287.381 194.295 286.047C195.629 284.714 196.378 282.905 196.378 281.019C196.378 279.133 195.629 277.325 194.295 275.991C192.961 274.657 191.152 273.908 189.265 273.908C187.378 273.908 185.569 274.657 184.235 275.991C182.901 277.325 182.152 279.133 182.152 281.019Z" fill="#E0E0E0"/>
<path d="M136.592 281.019C136.6 282.908 137.356 284.717 138.695 286.049C140.033 287.382 141.846 288.13 143.735 288.13C145.619 288.123 147.424 287.371 148.756 286.039C150.088 284.707 150.84 282.903 150.848 281.019C150.848 279.133 150.099 277.325 148.765 275.991C147.431 274.657 145.621 273.908 143.735 273.908C142.798 273.904 141.87 274.085 141.004 274.441C140.137 274.797 139.35 275.32 138.686 275.981C138.022 276.641 137.496 277.426 137.136 278.291C136.777 279.156 136.592 280.083 136.592 281.019Z" fill="#E0E0E0"/>
<path d="M91.0615 281.019C91.0692 282.903 91.8212 284.707 93.1535 286.039C94.4859 287.371 96.2905 288.122 98.1747 288.13C100.061 288.13 101.871 287.381 103.205 286.047C104.539 284.714 105.288 282.905 105.288 281.019C105.288 279.133 104.539 277.325 103.205 275.991C101.871 274.657 100.061 273.908 98.1747 273.908C96.2882 273.908 94.4789 274.657 93.1449 275.991C91.8109 277.325 91.0615 279.133 91.0615 281.019Z" fill="#E0E0E0"/>
<path d="M45.5309 281.019C45.5309 282.905 46.2804 284.714 47.6143 286.047C48.9483 287.381 50.7576 288.13 52.6441 288.13C54.5307 288.13 56.3399 287.381 57.6739 286.047C59.0079 284.714 59.7573 282.905 59.7573 281.019C59.7573 279.133 59.0079 277.325 57.6739 275.991C56.3399 274.657 54.5307 273.908 52.6441 273.908C50.7576 273.908 48.9483 274.657 47.6143 275.991C46.2804 277.325 45.5309 279.133 45.5309 281.019Z" fill="#E0E0E0"/>
<path d="M0.000164032 281.019C0.000164032 282.905 0.749593 284.714 2.08359 286.047C3.41758 287.381 5.22681 288.13 7.11336 288.13C8.99753 288.122 10.8024 287.371 12.1347 286.039C13.467 284.707 14.2188 282.903 14.2266 281.019C14.2266 279.133 13.4771 277.325 12.1431 275.991C10.8091 274.657 8.99991 273.908 7.11336 273.908C5.22681 273.908 3.41758 274.657 2.08359 275.991C0.749593 277.325 0.000164032 279.133 0.000164032 281.019Z" fill="#E0E0E0"/>
<path d="M273.213 238.06C273.221 239.944 273.973 241.748 275.305 243.08C276.638 244.412 278.443 245.164 280.327 245.171C281.261 245.171 282.186 244.987 283.049 244.63C283.912 244.273 284.696 243.749 285.356 243.089C286.017 242.428 286.541 241.644 286.898 240.782C287.256 239.919 287.44 238.994 287.44 238.06C287.444 237.124 287.263 236.196 286.907 235.33C286.551 234.464 286.028 233.677 285.367 233.013C284.706 232.35 283.921 231.823 283.056 231.464C282.191 231.105 281.263 230.92 280.327 230.92C278.437 230.928 276.628 231.683 275.295 233.022C273.962 234.36 273.213 236.172 273.213 238.06Z" fill="#E0E0E0"/>
<path d="M227.683 238.06C227.683 238.994 227.867 239.919 228.224 240.782C228.581 241.644 229.105 242.428 229.766 243.089C230.426 243.749 231.211 244.273 232.074 244.63C232.937 244.987 233.862 245.171 234.796 245.171C235.73 245.171 236.655 244.987 237.518 244.63C238.381 244.273 239.165 243.749 239.826 243.089C240.486 242.428 241.01 241.644 241.368 240.782C241.725 239.919 241.909 238.994 241.909 238.06C241.913 237.124 241.732 236.196 241.376 235.33C241.02 234.464 240.497 233.677 239.836 233.013C239.175 232.35 238.39 231.823 237.525 231.464C236.66 231.105 235.733 230.92 234.796 230.92C233.859 230.92 232.932 231.105 232.067 231.464C231.202 231.823 230.416 232.35 229.756 233.013C229.095 233.677 228.571 234.464 228.216 235.33C227.86 236.196 227.679 237.124 227.683 238.06Z" fill="#E0E0E0"/>
<path d="M182.152 238.06C182.152 239.946 182.901 241.755 184.235 243.089C185.569 244.422 187.378 245.171 189.265 245.171C190.199 245.171 191.124 244.987 191.987 244.63C192.85 244.273 193.634 243.749 194.295 243.089C194.955 242.428 195.479 241.644 195.837 240.782C196.194 239.919 196.378 238.994 196.378 238.06C196.382 237.124 196.201 236.196 195.845 235.33C195.49 234.464 194.966 233.677 194.305 233.013C193.644 232.35 192.859 231.823 191.994 231.464C191.129 231.105 190.202 230.92 189.265 230.92C188.328 230.92 187.401 231.105 186.536 231.464C185.671 231.823 184.886 232.35 184.225 233.013C183.564 233.677 183.041 234.464 182.685 235.33C182.329 236.196 182.148 237.124 182.152 238.06Z" fill="#E0E0E0"/>
<path d="M136.592 238.06C136.6 239.949 137.356 241.758 138.695 243.09C140.033 244.423 141.846 245.171 143.735 245.171C145.619 245.164 147.424 244.412 148.756 243.08C150.088 241.748 150.84 239.944 150.848 238.06C150.848 236.172 150.1 234.36 148.767 233.022C147.433 231.683 145.624 230.928 143.735 230.92C141.84 230.92 140.024 231.672 138.684 233.011C137.345 234.35 136.592 236.167 136.592 238.06Z" fill="#E0E0E0"/>
<path d="M91.0614 238.06C91.0692 239.944 91.8212 241.748 93.1535 243.08C94.4858 244.412 96.2905 245.164 98.1746 245.171C99.1088 245.171 100.034 244.987 100.897 244.63C101.76 244.273 102.544 243.749 103.205 243.089C103.865 242.428 104.389 241.644 104.746 240.782C105.104 239.919 105.288 238.994 105.288 238.06C105.292 237.124 105.111 236.196 104.755 235.33C104.399 234.464 103.876 233.677 103.215 233.013C102.554 232.35 101.769 231.823 100.904 231.464C100.039 231.105 99.1113 230.92 98.1746 230.92C96.2854 230.928 94.4762 231.683 93.1431 233.022C91.8099 234.36 91.0614 236.172 91.0614 238.06Z" fill="#E0E0E0"/>
<path d="M45.5309 238.06C45.5309 238.994 45.7148 239.919 46.0723 240.782C46.4298 241.644 46.9538 242.428 47.6143 243.089C48.2748 243.749 49.0589 244.273 49.922 244.63C50.785 244.987 51.7099 245.171 52.6441 245.171C54.5306 245.171 56.3398 244.422 57.6738 243.089C59.0078 241.755 59.7573 239.946 59.7573 238.06C59.7611 237.124 59.58 236.196 59.2243 235.33C58.8685 234.464 58.3452 233.677 57.6842 233.013C57.0233 232.35 56.2379 231.823 55.373 231.464C54.508 231.105 53.5807 230.92 52.6441 230.92C51.7075 230.92 50.7801 231.105 49.9151 231.464C49.0502 231.823 48.2648 232.35 47.6039 233.013C46.943 233.677 46.4196 234.464 46.0639 235.33C45.7081 236.196 45.527 237.124 45.5309 238.06Z" fill="#E0E0E0"/>
<path d="M273.213 195.07C273.213 196.956 273.963 198.765 275.297 200.098C276.631 201.432 278.44 202.181 280.327 202.181C282.213 202.181 284.023 201.432 285.357 200.098C286.691 198.765 287.44 196.956 287.44 195.07C287.44 194.136 287.256 193.211 286.898 192.349C286.541 191.486 286.017 190.702 285.357 190.042C284.696 189.381 283.912 188.858 283.049 188.5C282.186 188.143 281.261 187.959 280.327 187.959C278.443 187.967 276.638 188.718 275.305 190.05C273.973 191.382 273.221 193.186 273.213 195.07Z" fill="#E0E0E0"/>
<path d="M227.683 195.07C227.683 196.956 228.432 198.765 229.766 200.098C231.1 201.432 232.909 202.181 234.796 202.181C236.683 202.181 238.492 201.432 239.826 200.098C241.16 198.765 241.909 196.956 241.909 195.07C241.909 194.136 241.725 193.211 241.368 192.349C241.01 191.486 240.486 190.702 239.826 190.042C239.165 189.381 238.381 188.858 237.518 188.5C236.655 188.143 235.73 187.959 234.796 187.959C233.862 187.959 232.937 188.143 232.074 188.5C231.211 188.858 230.427 189.381 229.766 190.042C229.105 190.702 228.582 191.486 228.224 192.349C227.867 193.211 227.683 194.136 227.683 195.07Z" fill="#E0E0E0"/>
<path d="M182.152 195.07C182.152 196.956 182.901 198.765 184.235 200.098C185.569 201.432 187.378 202.181 189.265 202.181C191.152 202.181 192.961 201.432 194.295 200.098C195.629 198.765 196.378 196.956 196.378 195.07C196.378 194.136 196.194 193.211 195.837 192.349C195.48 191.486 194.956 190.702 194.295 190.042C193.634 189.381 192.85 188.858 191.987 188.5C191.124 188.143 190.199 187.959 189.265 187.959C187.378 187.959 185.569 188.708 184.235 190.042C182.901 191.375 182.152 193.184 182.152 195.07Z" fill="#E0E0E0"/>
<path d="M136.592 195.07C136.592 196.006 136.777 196.933 137.136 197.798C137.496 198.663 138.022 199.448 138.686 200.109C139.35 200.769 140.137 201.293 141.004 201.648C141.87 202.004 142.798 202.185 143.735 202.181C145.621 202.181 147.431 201.432 148.765 200.098C150.099 198.765 150.848 196.956 150.848 195.07C150.84 193.186 150.088 191.382 148.756 190.05C147.424 188.718 145.619 187.967 143.735 187.959C141.846 187.959 140.033 188.707 138.695 190.04C137.356 191.373 136.6 193.181 136.592 195.07Z" fill="#E0E0E0"/>
<path d="M91.0615 195.07C91.0615 196.956 91.8109 198.765 93.1449 200.098C94.4789 201.432 96.2882 202.181 98.1747 202.181C100.061 202.181 101.871 201.432 103.205 200.098C104.539 198.765 105.288 196.956 105.288 195.07C105.288 194.136 105.104 193.211 104.746 192.349C104.389 191.486 103.865 190.702 103.205 190.042C102.544 189.381 101.76 188.858 100.897 188.5C100.034 188.143 99.1088 187.959 98.1747 187.959C96.2905 187.967 94.4859 188.718 93.1535 190.05C91.8212 191.382 91.0692 193.186 91.0615 195.07Z" fill="#E0E0E0"/>
<path d="M45.5309 195.07C45.5309 196.956 46.2804 198.765 47.6143 200.098C48.9483 201.432 50.7576 202.181 52.6441 202.181C54.5307 202.181 56.3399 201.432 57.6739 200.098C59.0079 198.765 59.7573 196.956 59.7573 195.07C59.7573 193.184 59.0079 191.375 57.6739 190.042C56.3399 188.708 54.5307 187.959 52.6441 187.959C51.71 187.959 50.785 188.143 49.922 188.5C49.059 188.858 48.2749 189.381 47.6143 190.042C46.9538 190.702 46.4298 191.486 46.0724 192.349C45.7149 193.211 45.5309 194.136 45.5309 195.07Z" fill="#E0E0E0"/>
<path d="M227.683 152.111C227.683 153.997 228.432 155.806 229.766 157.139C231.1 158.473 232.909 159.222 234.796 159.222C236.683 159.222 238.492 158.473 239.826 157.139C241.16 155.806 241.909 153.997 241.909 152.111C241.909 150.225 241.16 148.416 239.826 147.083C238.492 145.749 236.683 145 234.796 145C232.909 145 231.1 145.749 229.766 147.083C228.432 148.416 227.683 150.225 227.683 152.111Z" fill="#E0E0E0"/>
<path d="M182.152 152.111C182.152 153.997 182.901 155.806 184.235 157.139C185.569 158.473 187.378 159.222 189.265 159.222C191.152 159.222 192.961 158.473 194.295 157.139C195.629 155.806 196.378 153.997 196.378 152.111C196.378 150.225 195.629 148.416 194.295 147.083C192.961 145.749 191.152 145 189.265 145C187.378 145 185.569 145.749 184.235 147.083C182.901 148.416 182.152 150.225 182.152 152.111Z" fill="#E0E0E0"/>
<path d="M136.592 152.111C136.592 153.047 136.777 153.974 137.136 154.839C137.496 155.704 138.022 156.489 138.686 157.15C139.35 157.81 140.137 158.334 141.004 158.689C141.87 159.045 142.798 159.226 143.735 159.222C145.621 159.222 147.431 158.473 148.765 157.139C150.099 155.806 150.848 153.997 150.848 152.111C150.848 150.225 150.099 148.416 148.765 147.083C147.431 145.749 145.621 145 143.735 145C142.798 144.996 141.87 145.177 141.004 145.533C140.137 145.889 139.35 146.412 138.686 147.072C138.022 147.733 137.496 148.518 137.136 149.383C136.777 150.248 136.592 151.175 136.592 152.111Z" fill="#E0E0E0"/>
<path d="M98.1748 159.222C94.2463 159.222 91.0616 156.038 91.0616 152.111C91.0616 148.184 94.2463 145 98.1748 145C102.103 145 105.288 148.184 105.288 152.111C105.288 156.038 102.103 159.222 98.1748 159.222Z" fill="#E0E0E0"/>
</g>
<g opacity="0.05" clip-path="url(#clip2_58_10342)">
<path d="M1889.68 308.06C1889.68 308.994 1889.87 309.919 1890.22 310.782C1890.58 311.644 1891.11 312.428 1891.77 313.089C1892.43 313.749 1893.21 314.273 1894.07 314.63C1894.94 314.987 1895.86 315.171 1896.8 315.171C1897.73 315.171 1898.66 314.987 1899.52 314.63C1900.38 314.273 1901.17 313.749 1901.83 313.089C1902.49 312.428 1903.01 311.644 1903.37 310.782C1903.73 309.919 1903.91 308.994 1903.91 308.06C1903.91 307.124 1903.73 306.196 1903.38 305.33C1903.02 304.464 1902.5 303.677 1901.84 303.013C1901.18 302.35 1900.39 301.823 1899.52 301.464C1898.66 301.105 1897.73 300.92 1896.8 300.92C1895.86 300.92 1894.93 301.105 1894.07 301.464C1893.2 301.823 1892.42 302.35 1891.76 303.013C1891.09 303.677 1890.57 304.464 1890.22 305.33C1889.86 306.196 1889.68 307.124 1889.68 308.06Z" fill="#E0E0E0"/>
<path d="M1844.15 308.06C1844.15 309.946 1844.9 311.755 1846.24 313.089C1847.57 314.422 1849.38 315.171 1851.27 315.171C1852.2 315.171 1853.12 314.987 1853.99 314.63C1854.85 314.273 1855.63 313.749 1856.3 313.089C1856.96 312.428 1857.48 311.644 1857.84 310.782C1858.19 309.919 1858.38 308.994 1858.38 308.06C1858.38 307.124 1858.2 306.196 1857.85 305.33C1857.49 304.464 1856.97 303.677 1856.31 303.013C1855.64 302.35 1854.86 301.823 1853.99 301.464C1853.13 301.105 1852.2 300.92 1851.27 300.92C1850.33 300.92 1849.4 301.105 1848.54 301.464C1847.67 301.823 1846.89 302.35 1846.23 303.013C1845.56 303.677 1845.04 304.464 1844.69 305.33C1844.33 306.196 1844.15 307.124 1844.15 308.06Z" fill="#E0E0E0"/>
<path d="M1798.59 308.06C1798.6 309.949 1799.36 311.758 1800.69 313.09C1802.03 314.423 1803.85 315.171 1805.73 315.171C1807.62 315.164 1809.42 314.412 1810.76 313.08C1812.09 311.748 1812.84 309.944 1812.85 308.06C1812.85 306.172 1812.1 304.36 1810.77 303.022C1809.43 301.683 1807.62 300.928 1805.73 300.92C1803.84 300.92 1802.02 301.672 1800.68 303.011C1799.34 304.35 1798.59 306.167 1798.59 308.06Z" fill="#E0E0E0"/>
<path d="M1753.06 308.06C1753.07 309.944 1753.82 311.748 1755.15 313.08C1756.49 314.412 1758.29 315.164 1760.17 315.171C1761.11 315.171 1762.03 314.987 1762.9 314.63C1763.76 314.273 1764.54 313.749 1765.2 313.089C1765.86 312.428 1766.39 311.644 1766.75 310.782C1767.1 309.919 1767.29 308.994 1767.29 308.06C1767.29 307.124 1767.11 306.196 1766.75 305.33C1766.4 304.464 1765.88 303.677 1765.21 303.013C1764.55 302.35 1763.77 301.823 1762.9 301.464C1762.04 301.105 1761.11 300.92 1760.17 300.92C1758.29 300.928 1756.48 301.683 1755.14 303.022C1753.81 304.36 1753.06 306.172 1753.06 308.06Z" fill="#E0E0E0"/>
<path d="M1707.53 308.06C1707.53 308.994 1707.71 309.919 1708.07 310.782C1708.43 311.644 1708.95 312.428 1709.61 313.089C1710.27 313.749 1711.06 314.273 1711.92 314.63C1712.78 314.987 1713.71 315.171 1714.64 315.171C1716.53 315.171 1718.34 314.422 1719.67 313.089C1721.01 311.755 1721.76 309.946 1721.76 308.06C1721.76 307.124 1721.58 306.196 1721.22 305.33C1720.87 304.464 1720.34 303.677 1719.68 303.013C1719.02 302.35 1718.24 301.823 1717.37 301.464C1716.51 301.105 1715.58 300.92 1714.64 300.92C1713.71 300.92 1712.78 301.105 1711.91 301.464C1711.05 301.823 1710.26 302.35 1709.6 303.013C1708.94 303.677 1708.42 304.464 1708.06 305.33C1707.71 306.196 1707.53 307.124 1707.53 308.06Z" fill="#E0E0E0"/>
<path d="M1889.68 265.07C1889.68 266.956 1890.43 268.765 1891.77 270.098C1893.1 271.432 1894.91 272.181 1896.8 272.181C1898.68 272.181 1900.49 271.432 1901.83 270.098C1903.16 268.765 1903.91 266.956 1903.91 265.07C1903.91 264.136 1903.73 263.211 1903.37 262.349C1903.01 261.486 1902.49 260.702 1901.83 260.042C1901.17 259.381 1900.38 258.858 1899.52 258.5C1898.66 258.143 1897.73 257.959 1896.8 257.959C1895.86 257.959 1894.94 258.143 1894.07 258.5C1893.21 258.858 1892.43 259.381 1891.77 260.042C1891.11 260.702 1890.58 261.486 1890.22 262.349C1889.87 263.211 1889.68 264.136 1889.68 265.07Z" fill="#E0E0E0"/>
<path d="M1844.15 265.07C1844.15 266.956 1844.9 268.765 1846.24 270.098C1847.57 271.432 1849.38 272.181 1851.27 272.181C1853.15 272.181 1854.96 271.432 1856.3 270.098C1857.63 268.765 1858.38 266.956 1858.38 265.07C1858.38 264.136 1858.19 263.211 1857.84 262.349C1857.48 261.486 1856.96 260.702 1856.3 260.042C1855.63 259.381 1854.85 258.858 1853.99 258.5C1853.12 258.143 1852.2 257.959 1851.27 257.959C1849.38 257.959 1847.57 258.708 1846.24 260.042C1844.9 261.375 1844.15 263.184 1844.15 265.07Z" fill="#E0E0E0"/>
<path d="M1798.59 265.07C1798.59 266.006 1798.78 266.933 1799.14 267.798C1799.5 268.663 1800.02 269.448 1800.69 270.109C1801.35 270.769 1802.14 271.293 1803 271.648C1803.87 272.004 1804.8 272.185 1805.73 272.181C1807.62 272.181 1809.43 271.432 1810.76 270.098C1812.1 268.765 1812.85 266.956 1812.85 265.07C1812.84 263.186 1812.09 261.382 1810.76 260.05C1809.42 258.718 1807.62 257.967 1805.73 257.959C1803.85 257.959 1802.03 258.707 1800.69 260.04C1799.36 261.373 1798.6 263.181 1798.59 265.07Z" fill="#E0E0E0"/>
<path d="M1753.06 265.07C1753.06 266.956 1753.81 268.765 1755.14 270.098C1756.48 271.432 1758.29 272.181 1760.17 272.181C1762.06 272.181 1763.87 271.432 1765.2 270.098C1766.54 268.765 1767.29 266.956 1767.29 265.07C1767.29 264.136 1767.1 263.211 1766.75 262.349C1766.39 261.486 1765.86 260.702 1765.2 260.042C1764.54 259.381 1763.76 258.858 1762.9 258.5C1762.03 258.143 1761.11 257.959 1760.17 257.959C1758.29 257.967 1756.49 258.718 1755.15 260.05C1753.82 261.382 1753.07 263.186 1753.06 265.07Z" fill="#E0E0E0"/>
<path d="M1707.53 265.07C1707.53 266.956 1708.28 268.765 1709.61 270.098C1710.95 271.432 1712.76 272.181 1714.64 272.181C1716.53 272.181 1718.34 271.432 1719.67 270.098C1721.01 268.765 1721.76 266.956 1721.76 265.07C1721.76 263.184 1721.01 261.375 1719.67 260.042C1718.34 258.708 1716.53 257.959 1714.64 257.959C1713.71 257.959 1712.78 258.143 1711.92 258.5C1711.06 258.858 1710.27 259.381 1709.61 260.042C1708.95 260.702 1708.43 261.486 1708.07 262.349C1707.71 263.211 1707.53 264.136 1707.53 265.07Z" fill="#E0E0E0"/>
<path d="M1889.68 222.111C1889.68 223.997 1890.43 225.806 1891.77 227.139C1893.1 228.473 1894.91 229.222 1896.8 229.222C1898.68 229.222 1900.49 228.473 1901.83 227.139C1903.16 225.806 1903.91 223.997 1903.91 222.111C1903.91 220.225 1903.16 218.416 1901.83 217.083C1900.49 215.749 1898.68 215 1896.8 215C1894.91 215 1893.1 215.749 1891.77 217.083C1890.43 218.416 1889.68 220.225 1889.68 222.111Z" fill="#E0E0E0"/>
<path d="M1844.15 222.111C1844.15 223.997 1844.9 225.806 1846.24 227.139C1847.57 228.473 1849.38 229.222 1851.27 229.222C1853.15 229.222 1854.96 228.473 1856.3 227.139C1857.63 225.806 1858.38 223.997 1858.38 222.111C1858.38 220.225 1857.63 218.416 1856.3 217.083C1854.96 215.749 1853.15 215 1851.27 215C1849.38 215 1847.57 215.749 1846.24 217.083C1844.9 218.416 1844.15 220.225 1844.15 222.111Z" fill="#E0E0E0"/>
<path d="M1798.59 222.111C1798.59 223.047 1798.78 223.974 1799.14 224.839C1799.5 225.704 1800.02 226.489 1800.69 227.15C1801.35 227.81 1802.14 228.334 1803 228.689C1803.87 229.045 1804.8 229.226 1805.73 229.222C1807.62 229.222 1809.43 228.473 1810.76 227.139C1812.1 225.806 1812.85 223.997 1812.85 222.111C1812.85 220.225 1812.1 218.416 1810.76 217.083C1809.43 215.749 1807.62 215 1805.73 215C1804.8 214.996 1803.87 215.177 1803 215.533C1802.14 215.889 1801.35 216.412 1800.69 217.072C1800.02 217.733 1799.5 218.518 1799.14 219.383C1798.78 220.248 1798.59 221.175 1798.59 222.111Z" fill="#E0E0E0"/>
<path d="M1760.17 229.222C1756.25 229.222 1753.06 226.038 1753.06 222.111C1753.06 218.184 1756.25 215 1760.17 215C1764.1 215 1767.29 218.184 1767.29 222.111C1767.29 226.038 1764.1 229.222 1760.17 229.222Z" fill="#E0E0E0"/>
<rect width="723" height="625" transform="translate(1197 342)" fill="#FDF2EB"/>
<path d="M1889.68 351.019C1889.68 352.905 1890.43 354.714 1891.77 356.047C1893.1 357.381 1894.91 358.13 1896.8 358.13C1898.68 358.13 1900.49 357.381 1901.83 356.047C1903.16 354.714 1903.91 352.905 1903.91 351.019C1903.91 349.133 1903.16 347.325 1901.83 345.991C1900.49 344.657 1898.68 343.908 1896.8 343.908C1894.91 343.908 1893.1 344.657 1891.77 345.991C1890.43 347.325 1889.68 349.133 1889.68 351.019Z" fill="#E0E0E0"/>
<path d="M1844.15 351.019C1844.15 352.905 1844.9 354.714 1846.24 356.047C1847.57 357.381 1849.38 358.13 1851.27 358.13C1853.15 358.13 1854.96 357.381 1856.3 356.047C1857.63 354.714 1858.38 352.905 1858.38 351.019C1858.38 349.133 1857.63 347.325 1856.3 345.991C1854.96 344.657 1853.15 343.908 1851.27 343.908C1849.38 343.908 1847.57 344.657 1846.24 345.991C1844.9 347.325 1844.15 349.133 1844.15 351.019Z" fill="#E0E0E0"/>
<path d="M1798.59 351.019C1798.6 352.908 1799.36 354.717 1800.69 356.049C1802.03 357.382 1803.85 358.13 1805.73 358.13C1807.62 358.123 1809.42 357.371 1810.76 356.039C1812.09 354.707 1812.84 352.903 1812.85 351.019C1812.85 349.133 1812.1 347.325 1810.76 345.991C1809.43 344.657 1807.62 343.908 1805.73 343.908C1804.8 343.904 1803.87 344.085 1803 344.441C1802.14 344.797 1801.35 345.32 1800.69 345.981C1800.02 346.641 1799.5 347.426 1799.14 348.291C1798.78 349.156 1798.59 350.083 1798.59 351.019Z" fill="#E0E0E0"/>
<path d="M1753.06 351.019C1753.07 352.903 1753.82 354.707 1755.15 356.039C1756.49 357.371 1758.29 358.122 1760.17 358.13C1762.06 358.13 1763.87 357.381 1765.2 356.047C1766.54 354.714 1767.29 352.905 1767.29 351.019C1767.29 349.133 1766.54 347.325 1765.2 345.991C1763.87 344.657 1762.06 343.908 1760.17 343.908C1758.29 343.908 1756.48 344.657 1755.14 345.991C1753.81 347.325 1753.06 349.133 1753.06 351.019Z" fill="#E0E0E0"/>
<path d="M1707.53 351.019C1707.53 352.905 1708.28 354.714 1709.61 356.047C1710.95 357.381 1712.76 358.13 1714.64 358.13C1716.53 358.13 1718.34 357.381 1719.67 356.047C1721.01 354.714 1721.76 352.905 1721.76 351.019C1721.76 349.133 1721.01 347.325 1719.67 345.991C1718.34 344.657 1716.53 343.908 1714.64 343.908C1712.76 343.908 1710.95 344.657 1709.61 345.991C1708.28 347.325 1707.53 349.133 1707.53 351.019Z" fill="#E0E0E0"/>
<path d="M1662 351.019C1662 352.905 1662.75 354.714 1664.08 356.047C1665.42 357.381 1667.23 358.13 1669.11 358.13C1671 358.122 1672.8 357.371 1674.13 356.039C1675.47 354.707 1676.22 352.903 1676.23 351.019C1676.23 349.133 1675.48 347.325 1674.14 345.991C1672.81 344.657 1671 343.908 1669.11 343.908C1667.23 343.908 1665.42 344.657 1664.08 345.991C1662.75 347.325 1662 349.133 1662 351.019Z" fill="#E0E0E0"/>
</g>
</g>
<defs>
<radialGradient id="paint0_radial_58_10342" cx="0" cy="0" r="1" gradientUnits="userSpaceOnUse" gradientTransform="translate(589.037 325.298) rotate(90.1329) scale(231.702 489.61)">
<stop stop-color="#D9D9D9" stop-opacity="0.74"/>
<stop offset="1" stop-color="#D9D9D9" stop-opacity="0"/>
</radialGradient>
<clipPath id="clip0_58_10342">
<rect width="1920" height="344" fill="white" transform="matrix(-1 0 0 1 1920 0)"/>
</clipPath>
<clipPath id="clip1_58_10342">
<rect width="333" height="315" fill="white" transform="matrix(-1 0 0 1 333 145)"/>
</clipPath>
<clipPath id="clip2_58_10342">
<rect width="333" height="315" fill="white" transform="matrix(-1 0 0 1 1995 215)"/>
</clipPath>
</defs>
</svg>
